<svg width="187" height="76" viewBox="0 0 187 76" fill="none" xmlns="http://www.w3.org/2000/svg">
<path d="M3.024 59.786V63.98H7.596V65.33H3.024V69.65H8.136V71H1.386V58.436H8.136V59.786H3.024ZM14.2865 69.488L17.3465 61.136H19.0925L15.2225 71H13.3145L9.44452 61.136H11.2085L14.2865 69.488ZM29.7044 65.69C29.7044 66.002 29.6864 66.332 29.6504 66.68H21.7664C21.8264 67.652 22.1564 68.414 22.7564 68.966C23.3684 69.506 24.1064 69.776 24.9704 69.776C25.6784 69.776 26.2664 69.614 26.7344 69.29C27.2144 68.954 27.5504 68.51 27.7424 67.958H29.5064C29.2424 68.906 28.7144 69.68 27.9224 70.28C27.1304 70.868 26.1464 71.162 24.9704 71.162C24.0344 71.162 23.1944 70.952 22.4504 70.532C21.7184 70.112 21.1424 69.518 20.7224 68.75C20.3024 67.97 20.0924 67.07 20.0924 66.05C20.0924 65.03 20.2964 64.136 20.7044 63.368C21.1124 62.6 21.6824 62.012 22.4144 61.604C23.1584 61.184 24.0104 60.974 24.9704 60.974C25.9064 60.974 26.7344 61.178 27.4544 61.586C28.1744 61.994 28.7264 62.558 29.1104 63.278C29.5064 63.986 29.7044 64.79 29.7044 65.69ZM28.0124 65.348C28.0124 64.724 27.8744 64.19 27.5984 63.746C27.3224 63.29 26.9444 62.948 26.4644 62.72C25.9964 62.48 25.4744 62.36 24.8984 62.36C24.0704 62.36 23.3624 62.624 22.7744 63.152C22.1984 63.68 21.8684 64.412 21.7844 65.348H28.0124ZM33.5045 62.738C33.7925 62.174 34.2005 61.736 34.7285 61.424C35.2685 61.112 35.9225 60.956 36.6905 60.956V62.648H36.2585C34.4225 62.648 33.5045 63.644 33.5045 65.636V71H31.8665V61.136H33.5045V62.738ZM47.0773 61.136L41.1373 75.644H39.4453L41.3893 70.892L37.4113 61.136H39.2293L42.3253 69.128L45.3853 61.136H47.0773ZM50.3619 62.972C50.6979 62.384 51.1899 61.904 51.8379 61.532C52.4859 61.16 53.2239 60.974 54.0519 60.974C54.9399 60.974 55.7379 61.184 56.4459 61.604C57.1539 62.024 57.7119 62.618 58.1199 63.386C58.5279 64.142 58.7319 65.024 58.7319 66.032C58.7319 67.028 58.5279 67.916 58.1199 68.696C57.7119 69.476 57.1479 70.082 56.4279 70.514C55.7199 70.946 54.9279 71.162 54.0519 71.162C53.1999 71.162 52.4499 70.976 51.8019 70.604C51.1659 70.232 50.6859 69.758 50.3619 69.182V71H48.7239V57.68H50.3619V62.972ZM57.0579 66.032C57.0579 65.288 56.9079 64.64 56.6079 64.088C56.3079 63.536 55.8999 63.116 55.3839 62.828C54.8799 62.54 54.3219 62.396 53.7099 62.396C53.1099 62.396 52.5519 62.546 52.0359 62.846C51.5319 63.134 51.1239 63.56 50.8119 64.124C50.5119 64.676 50.3619 65.318 50.3619 66.05C50.3619 66.794 50.5119 67.448 50.8119 68.012C51.1239 68.564 51.5319 68.99 52.0359 69.29C52.5519 69.578 53.1099 69.722 53.7099 69.722C54.3219 69.722 54.8799 69.578 55.3839 69.29C55.8999 68.99 56.3079 68.564 56.6079 68.012C56.9079 67.448 57.0579 66.788 57.0579 66.032ZM65.19 71.162C64.266 71.162 63.426 70.952 62.67 70.532C61.926 70.112 61.338 69.518 60.906 68.75C60.486 67.97 60.276 67.07 60.276 66.05C60.276 65.042 60.492 64.154 60.924 63.386C61.368 62.606 61.968 62.012 62.724 61.604C63.48 61.184 64.326 60.974 65.262 60.974C66.198 60.974 67.044 61.184 67.8 61.604C68.556 62.012 69.15 62.6 69.582 63.368C70.026 64.136 70.248 65.03 70.248 66.05C70.248 67.07 70.02 67.97 69.564 68.75C69.12 69.518 68.514 70.112 67.746 70.532C66.978 70.952 66.126 71.162 65.19 71.162ZM65.19 69.722C65.778 69.722 66.33 69.584 66.846 69.308C67.362 69.032 67.776 68.618 68.088 68.066C68.412 67.514 68.574 66.842 68.574 66.05C68.574 65.258 68.418 64.586 68.106 64.034C67.794 63.482 67.386 63.074 66.882 62.81C66.378 62.534 65.832 62.396 65.244 62.396C64.644 62.396 64.092 62.534 63.588 62.81C63.096 63.074 62.7 63.482 62.4 64.034C62.1 64.586 61.95 65.258 61.95 66.05C61.95 66.854 62.094 67.532 62.382 68.084C62.682 68.636 63.078 69.05 63.57 69.326C64.062 69.59 64.602 69.722 65.19 69.722ZM71.7896 66.032C71.7896 65.024 71.9936 64.142 72.4016 63.386C72.8096 62.618 73.3676 62.024 74.0756 61.604C74.7956 61.184 75.5996 60.974 76.4876 60.974C77.2556 60.974 77.9696 61.154 78.6296 61.514C79.2896 61.862 79.7936 62.324 80.1416 62.9V57.68H81.7976V71H80.1416V69.146C79.8176 69.734 79.3376 70.22 78.7016 70.604C78.0656 70.976 77.3216 71.162 76.4696 71.162C75.5936 71.162 74.7956 70.946 74.0756 70.514C73.3676 70.082 72.8096 69.476 72.4016 68.696C71.9936 67.916 71.7896 67.028 71.7896 66.032ZM80.1416 66.05C80.1416 65.306 79.9916 64.658 79.6916 64.106C79.3916 63.554 78.9836 63.134 78.4676 62.846C77.9636 62.546 77.4056 62.396 76.7936 62.396C76.1816 62.396 75.6236 62.54 75.1196 62.828C74.6156 63.116 74.2136 63.536 73.9136 64.088C73.6136 64.64 73.4636 65.288 73.4636 66.032C73.4636 66.788 73.6136 67.448 73.9136 68.012C74.2136 68.564 74.6156 68.99 75.1196 69.29C75.6236 69.578 76.1816 69.722 76.7936 69.722C77.4056 69.722 77.9636 69.578 78.4676 69.29C78.9836 68.99 79.3916 68.564 79.6916 68.012C79.9916 67.448 80.1416 66.794 80.1416 66.05ZM93.0617 61.136L87.1217 75.644H85.4297L87.3737 70.892L83.3957 61.136H85.2137L88.3097 69.128L91.3697 61.136H93.0617ZM98.8951 64.718C98.8951 63.494 99.1711 62.396 99.7231 61.424C100.275 60.44 101.025 59.672 101.973 59.12C102.933 58.568 103.995 58.292 105.159 58.292C106.527 58.292 107.721 58.622 108.741 59.282C109.761 59.942 110.505 60.878 110.973 62.09H109.011C108.663 61.334 108.159 60.752 107.499 60.344C106.851 59.936 106.071 59.732 105.159 59.732C104.283 59.732 103.497 59.936 102.801 60.344C102.105 60.752 101.559 61.334 101.163 62.09C100.767 62.834 100.569 63.71 100.569 64.718C100.569 65.714 100.767 66.59 101.163 67.346C101.559 68.09 102.105 68.666 102.801 69.074C103.497 69.482 104.283 69.686 105.159 69.686C106.071 69.686 106.851 69.488 107.499 69.092C108.159 68.684 108.663 68.102 109.011 67.346H110.973C110.505 68.546 109.761 69.476 108.741 70.136C107.721 70.784 106.527 71.108 105.159 71.108C103.995 71.108 102.933 70.838 101.973 70.298C101.025 69.746 100.275 68.984 99.7231 68.012C99.1711 67.04 98.8951 65.942 98.8951 64.718ZM112.799 66.032C112.799 65.024 113.003 64.142 113.411 63.386C113.819 62.618 114.377 62.024 115.085 61.604C115.805 61.184 116.603 60.974 117.479 60.974C118.343 60.974 119.093 61.16 119.729 61.532C120.365 61.904 120.839 62.372 121.151 62.936V61.136H122.807V71H121.151V69.164C120.827 69.74 120.341 70.22 119.693 70.604C119.057 70.976 118.313 71.162 117.461 71.162C116.585 71.162 115.793 70.946 115.085 70.514C114.377 70.082 113.819 69.476 113.411 68.696C113.003 67.916 112.799 67.028 112.799 66.032ZM121.151 66.05C121.151 65.306 121.001 64.658 120.701 64.106C120.401 63.554 119.993 63.134 119.477 62.846C118.973 62.546 118.415 62.396 117.803 62.396C117.191 62.396 116.633 62.54 116.129 62.828C115.625 63.116 115.223 63.536 114.923 64.088C114.623 64.64 114.473 65.288 114.473 66.032C114.473 66.788 114.623 67.448 114.923 68.012C115.223 68.564 115.625 68.99 116.129 69.29C116.633 69.578 117.191 69.722 117.803 69.722C118.415 69.722 118.973 69.578 119.477 69.29C119.993 68.99 120.401 68.564 120.701 68.012C121.001 67.448 121.151 66.794 121.151 66.05ZM130.381 60.956C131.581 60.956 132.553 61.322 133.297 62.054C134.041 62.774 134.413 63.818 134.413 65.186V71H132.793V65.42C132.793 64.436 132.547 63.686 132.055 63.17C131.563 62.642 130.891 62.378 130.039 62.378C129.175 62.378 128.485 62.648 127.969 63.188C127.465 63.728 127.213 64.514 127.213 65.546V71H125.575V61.136H127.213V62.54C127.537 62.036 127.975 61.646 128.527 61.37C129.091 61.094 129.709 60.956 130.381 60.956ZM149.61 58.454V59.786H146.19V71H144.552V59.786H141.114V58.454H149.61ZM153.264 62.738C153.552 62.174 153.96 61.736 154.488 61.424C155.028 61.112 155.682 60.956 156.45 60.956V62.648H156.018C154.182 62.648 153.264 63.644 153.264 65.636V71H151.626V61.136H153.264V62.738ZM157.729 66.032C157.729 65.024 157.933 64.142 158.341 63.386C158.749 62.618 159.307 62.024 160.015 61.604C160.735 61.184 161.533 60.974 162.409 60.974C163.273 60.974 164.023 61.16 164.659 61.532C165.295 61.904 165.769 62.372 166.081 62.936V61.136H167.737V71H166.081V69.164C165.757 69.74 165.271 70.22 164.623 70.604C163.987 70.976 163.243 71.162 162.391 71.162C161.515 71.162 160.723 70.946 160.015 70.514C159.307 70.082 158.749 69.476 158.341 68.696C157.933 67.916 157.729 67.028 157.729 66.032ZM166.081 66.05C166.081 65.306 165.931 64.658 165.631 64.106C165.331 63.554 164.923 63.134 164.407 62.846C163.903 62.546 163.345 62.396 162.733 62.396C162.121 62.396 161.563 62.54 161.059 62.828C160.555 63.116 160.153 63.536 159.853 64.088C159.553 64.64 159.403 65.288 159.403 66.032C159.403 66.788 159.553 67.448 159.853 68.012C160.153 68.564 160.555 68.99 161.059 69.29C161.563 69.578 162.121 69.722 162.733 69.722C163.345 69.722 163.903 69.578 164.407 69.29C164.923 68.99 165.331 68.564 165.631 68.012C165.931 67.448 166.081 66.794 166.081 66.05ZM171.351 59.534C171.039 59.534 170.775 59.426 170.559 59.21C170.343 58.994 170.235 58.73 170.235 58.418C170.235 58.106 170.343 57.842 170.559 57.626C170.775 57.41 171.039 57.302 171.351 57.302C171.651 57.302 171.903 57.41 172.107 57.626C172.323 57.842 172.431 58.106 172.431 58.418C172.431 58.73 172.323 58.994 172.107 59.21C171.903 59.426 171.651 59.534 171.351 59.534ZM172.143 61.136V71H170.505V61.136H172.143ZM179.741 60.956C180.941 60.956 181.913 61.322 182.657 62.054C183.401 62.774 183.773 63.818 183.773 65.186V71H182.153V65.42C182.153 64.436 181.907 63.686 181.415 63.17C180.923 62.642 180.251 62.378 179.399 62.378C178.535 62.378 177.845 62.648 177.329 63.188C176.825 63.728 176.573 64.514 176.573 65.546V71H174.935V61.136H176.573V62.54C176.897 62.036 177.335 61.646 177.887 61.37C178.451 61.094 179.069 60.956 179.741 60.956Z" fill="#7B6F72"/>
<path d="M29.72 10.548V15.444H19.28V21.024H27.344V25.704H19.28V36H13.124V10.548H29.72ZM32.3058 10.26C32.3058 9.324 32.6418 8.556 33.3138 7.956C33.9858 7.332 34.8738 7.02 35.9778 7.02C37.0818 7.02 37.9698 7.332 38.6418 7.956C39.3138 8.556 39.6498 9.324 39.6498 10.26C39.6498 11.172 39.3138 11.94 38.6418 12.564C37.9698 13.164 37.0818 13.464 35.9778 13.464C34.8738 13.464 33.9858 13.164 33.3138 12.564C32.6418 11.94 32.3058 11.172 32.3058 10.26ZM39.0378 15.912V36H32.8818V15.912H39.0378ZM54.6641 30.708V36H51.8921C49.5401 36 47.7041 35.424 46.3841 34.272C45.0881 33.096 44.4401 31.164 44.4401 28.476V21.096H41.7401V15.912H44.4401V10.98H50.5961V15.912H54.6281V21.096H50.5961V28.584C50.5961 29.376 50.7521 29.928 51.0641 30.24C51.4001 30.552 51.9521 30.708 52.7201 30.708H54.6641ZM70.868 15.696C73.172 15.696 74.996 16.464 76.34 18C77.708 19.536 78.392 21.648 78.392 24.336V36H72.236V25.056C72.236 23.712 71.876 22.668 71.156 21.924C70.46 21.156 69.524 20.772 68.348 20.772C67.1 20.772 66.104 21.168 65.36 21.96C64.64 22.752 64.28 23.88 64.28 25.344V36H58.124V15.912H64.28V19.584C64.856 18.384 65.708 17.436 66.836 16.74C67.988 16.044 69.332 15.696 70.868 15.696ZM101.532 25.416C101.532 25.92 101.472 26.472 101.352 27.072H87.4201C87.4921 28.584 87.8761 29.676 88.5721 30.348C89.2681 30.996 90.1561 31.32 91.2361 31.32C92.1481 31.32 92.9041 31.092 93.5041 30.636C94.1041 30.18 94.5001 29.592 94.6921 28.872H101.208C100.944 30.288 100.368 31.56 99.4801 32.688C98.5921 33.792 97.4641 34.668 96.0961 35.316C94.7281 35.94 93.2041 36.252 91.5241 36.252C89.5561 36.252 87.8041 35.844 86.2681 35.028C84.7561 34.188 83.5681 32.988 82.7041 31.428C81.8401 29.868 81.4081 28.044 81.4081 25.956C81.4081 23.844 81.8281 22.02 82.6681 20.484C83.5321 18.924 84.7321 17.736 86.2681 16.92C87.8041 16.08 89.5561 15.66 91.5241 15.66C93.5161 15.66 95.2681 16.068 96.7801 16.884C98.2921 17.7 99.4561 18.852 100.272 20.34C101.112 21.804 101.532 23.496 101.532 25.416ZM95.3041 24.48C95.3281 23.16 94.9681 22.176 94.2241 21.528C93.5041 20.856 92.6041 20.52 91.5241 20.52C90.3961 20.52 89.4601 20.856 88.7161 21.528C87.9721 22.2 87.5521 23.184 87.4561 24.48H95.3041ZM112.049 15.66C114.593 15.66 116.621 16.296 118.133 17.568C119.669 18.84 120.629 20.52 121.013 22.608H115.253C115.085 21.792 114.701 21.156 114.101 20.7C113.525 20.22 112.793 19.98 111.905 19.98C111.209 19.98 110.681 20.136 110.321 20.448C109.961 20.736 109.781 21.156 109.781 21.708C109.781 22.332 110.105 22.8 110.753 23.112C111.425 23.424 112.469 23.736 113.885 24.048C115.421 24.408 116.681 24.78 117.665 25.164C118.649 25.524 119.501 26.124 120.221 26.964C120.941 27.804 121.301 28.932 121.301 30.348C121.301 31.5 120.989 32.52 120.365 33.408C119.741 34.296 118.841 34.992 117.665 35.496C116.489 36 115.097 36.252 113.489 36.252C110.777 36.252 108.605 35.652 106.973 34.452C105.341 33.252 104.345 31.536 103.985 29.304H109.925C110.021 30.168 110.381 30.828 111.005 31.284C111.653 31.74 112.481 31.968 113.489 31.968C114.185 31.968 114.713 31.812 115.073 31.5C115.433 31.164 115.613 30.732 115.613 30.204C115.613 29.508 115.277 29.016 114.605 28.728C113.957 28.416 112.889 28.092 111.401 27.756C109.913 27.444 108.689 27.108 107.729 26.748C106.769 26.388 105.941 25.812 105.245 25.02C104.549 24.204 104.201 23.1 104.201 21.708C104.201 19.908 104.885 18.456 106.253 17.352C107.621 16.224 109.553 15.66 112.049 15.66ZM136.086 30.708V36H133.314C130.962 36 129.126 35.424 127.806 34.272C126.51 33.096 125.862 31.164 125.862 28.476V21.096H123.162V15.912H125.862V10.98H132.018V15.912H136.05V21.096H132.018V28.584C132.018 29.376 132.174 29.928 132.486 30.24C132.822 30.552 133.374 30.708 134.142 30.708H136.086Z" fill="#1D1617"/>
<path d="M161.822 36L154.372 25L147.972 36H138.172L149.472 17.8L137.822 0.649999H147.972L155.222 11.3L161.472 0.649999H171.222L160.072 18.45L171.972 36H161.822Z" fill="white"/>
</svg>
