<svg width="40" height="40" viewBox="0 0 40 40" fill="none" xmlns="http://www.w3.org/2000/svg">
    <circle opacity="0.2" cx="20" cy="20" r="20" fill="url(#paint0_linear_430_15)" />
    <g clip-path="url(#clip0_430_15)">
        <g opacity="0.3">
            <path opacity="0.3"
                d="M14.6144 22.8282H14.6019L14.1229 22.689C14.1065 22.6839 14.0927 22.6724 14.0844 22.657C14.0762 22.6416 14.0742 22.6235 14.0789 22.6067C14.0836 22.5898 14.0945 22.5755 14.1095 22.5667C14.1244 22.558 14.142 22.5556 14.1587 22.56L14.6343 22.6975C14.6494 22.7026 14.6622 22.713 14.6703 22.7269C14.6784 22.7409 14.6813 22.7573 14.6785 22.7732C14.6757 22.7892 14.6673 22.8035 14.6549 22.8136C14.6425 22.8238 14.6269 22.8289 14.611 22.8282H14.6144Z"
                fill="black" />
            <path opacity="0.3"
                d="M14.1236 23.205C14.11 23.2037 14.0971 23.1982 14.0867 23.1893C14.0763 23.1803 14.0689 23.1683 14.0653 23.1549C14.0627 23.1461 14.0619 23.1368 14.0629 23.1277C14.064 23.1185 14.0668 23.1097 14.0714 23.1017C14.0759 23.0938 14.082 23.0869 14.0892 23.0814C14.0965 23.0759 14.1048 23.0721 14.1136 23.07L14.5926 22.9461C14.6092 22.9424 14.6265 22.9455 14.641 22.9546C14.6555 22.9638 14.6659 22.9783 14.6701 22.9951C14.6743 23.0119 14.6719 23.0297 14.6635 23.0448C14.6551 23.0599 14.6413 23.0711 14.625 23.076L14.1452 23.1999C14.1383 23.2028 14.131 23.2046 14.1236 23.205Z"
                fill="black" />
            <path opacity="0.3"
                d="M14.3681 23.6566C14.3524 23.655 14.3376 23.6478 14.3266 23.6362C14.3144 23.6236 14.3076 23.6067 14.3076 23.5891C14.3076 23.5714 14.3144 23.5545 14.3266 23.542L14.6808 23.1897C14.6868 23.1829 14.6942 23.1775 14.7023 23.1737C14.7105 23.1699 14.7193 23.1679 14.7283 23.1677C14.7373 23.1676 14.7462 23.1693 14.7545 23.1728C14.7628 23.1763 14.7703 23.1814 14.7765 23.188C14.7828 23.1946 14.7877 23.2024 14.7908 23.2109C14.794 23.2195 14.7955 23.2286 14.7951 23.2378C14.7947 23.2469 14.7925 23.2559 14.7885 23.2641C14.7846 23.2723 14.7791 23.2797 14.7723 23.2856L14.4197 23.6396C14.4127 23.6459 14.4045 23.6507 14.3957 23.6536C14.3868 23.6565 14.3774 23.6575 14.3681 23.6566Z"
                fill="black" />
            <path opacity="0.3"
                d="M14.798 23.924H14.7855C14.777 23.9216 14.7691 23.9174 14.7622 23.9118C14.7553 23.9062 14.7496 23.8992 14.7454 23.8913C14.7412 23.8834 14.7387 23.8747 14.7378 23.8657C14.737 23.8568 14.738 23.8477 14.7406 23.8391L14.872 23.3536C14.877 23.3368 14.8883 23.3227 14.9034 23.3143C14.9185 23.3059 14.9362 23.3039 14.9527 23.3087C14.9693 23.3135 14.9833 23.3247 14.9919 23.3399C15.0004 23.3551 15.0028 23.3731 14.9984 23.3901L14.8637 23.8756C14.8596 23.89 14.8509 23.9026 14.839 23.9114C14.8271 23.9202 14.8127 23.9246 14.798 23.924Z"
                fill="black" />
        </g>
        <path
            d="M27.7886 16.3867L26.597 17.087L23.9875 17.4724C23.9875 17.4724 22.0823 14.5507 21.7905 14.0915C21.4986 13.6323 21.1568 13.3378 20.366 13.3386L20.5156 15.6695C20.5406 15.745 22.1181 17.7287 23.1584 18.8101C23.526 19.1912 23.7513 19.2888 24.3226 19.1258C25.7887 18.7108 27.5658 17.4808 27.7088 17.1736C27.9009 16.7721 27.7745 16.3952 27.7886 16.3867Z"
            fill="#FFEDE5" />
        <path
            d="M27.2989 14.909C27.4552 14.3878 28.0939 13.9634 28.6868 14.1332C28.7807 14.1597 28.8707 14.1988 28.9546 14.2495C29.5367 14.589 29.9999 15.4166 29.9999 16.0973C30.0018 16.2123 29.986 16.3269 29.9533 16.4369C29.7978 16.9572 29.1608 17.385 28.5654 17.2144C28.4716 17.1875 28.3816 17.1484 28.2976 17.0981C27.7205 16.7586 27.2523 15.9301 27.2523 15.2494C27.2506 15.1342 27.2663 15.0194 27.2989 14.909Z"
            fill="#455A64" />
        <path
            d="M28.2985 17.0931C27.7214 16.7535 27.2532 15.9251 27.2532 15.2443C27.2532 14.5636 27.7214 14.2886 28.2985 14.6281C28.8756 14.9676 29.3413 15.7952 29.3413 16.476C29.3413 17.1567 28.8756 17.4326 28.2985 17.0931Z"
            fill="#37474F" />
        <path
            d="M28.2985 15.3826C28.0764 15.2519 27.896 15.358 27.896 15.6194C27.9035 15.762 27.9439 15.9006 28.0139 16.0242C28.0838 16.1478 28.1813 16.2528 28.2985 16.3307C28.5205 16.4615 28.7001 16.3554 28.7001 16.0939C28.6927 15.9515 28.6525 15.8128 28.5827 15.6892C28.5129 15.5656 28.4155 15.4606 28.2985 15.3826Z"
            fill="#455A64" />
        <path
            d="M28.1604 15.7756C28.163 15.8244 28.1769 15.8719 28.2009 15.9142C28.2249 15.9566 28.2583 15.9925 28.2984 16.0192C28.3116 16.0289 28.3269 16.0351 28.343 16.0374C28.3591 16.0396 28.3755 16.0377 28.3907 16.032L28.4007 16.026C28.4126 16.0156 28.4219 16.0025 28.428 15.9878C28.4341 15.9731 28.4367 15.9571 28.4356 15.9411C28.433 15.8924 28.4192 15.845 28.3954 15.8027C28.3715 15.7604 28.3383 15.7244 28.2984 15.6975C28.2852 15.6878 28.2699 15.6816 28.2538 15.6794C28.2377 15.6772 28.2213 15.679 28.2061 15.6848L28.1961 15.6907C28.184 15.701 28.1745 15.714 28.1683 15.7288C28.1621 15.7435 28.1593 15.7596 28.1604 15.7756Z"
            fill="#37474F" />
        <path
            d="M25.9526 17.0768C25.9552 17.1256 25.969 17.173 25.9928 17.2153C26.0166 17.2577 26.0499 17.2937 26.0899 17.3205C26.1077 17.3322 26.1285 17.3387 26.1497 17.3391C26.1659 17.3388 26.1817 17.3341 26.1955 17.3255L28.3908 16.032L28.4008 16.026C28.4127 16.0156 28.422 16.0025 28.4281 15.9878C28.4342 15.9731 28.4368 15.9571 28.4357 15.9411C28.4331 15.8924 28.4193 15.845 28.3955 15.8027C28.3717 15.7604 28.3384 15.7244 28.2985 15.6975C28.2853 15.6878 28.27 15.6816 28.2539 15.6794C28.2378 15.6772 28.2214 15.679 28.2062 15.6848L28.1962 15.6907L26.0009 16.9843C25.9851 16.9935 25.9722 17.0071 25.9637 17.0235C25.9552 17.0399 25.9513 17.0584 25.9526 17.0768Z"
            fill="#FAFAFA" />
        <path
            d="M23.7981 16.9725C23.9536 16.4522 24.5906 16.0219 25.186 16.1925C25.28 16.2195 25.3702 16.2586 25.4546 16.3088C26.0317 16.6483 26.4999 17.4767 26.4999 18.1575C26.5013 18.2724 26.4856 18.3869 26.4533 18.497C26.297 19.0173 25.6608 19.4451 25.0654 19.2754C24.9717 19.2484 24.8817 19.2093 24.7977 19.1591C24.2205 18.8196 23.7524 17.9911 23.7524 17.3112C23.7504 17.1966 23.7659 17.0824 23.7981 16.9725Z"
            fill="#455A64" />
        <path
            d="M24.7968 19.1557C24.2196 18.8162 23.7515 17.9878 23.7515 17.3078C23.7515 16.6279 24.2196 16.3512 24.7968 16.6908C25.3739 17.0303 25.8421 17.8587 25.8421 18.5395C25.8421 19.2202 25.3747 19.4961 24.7968 19.1557Z"
            fill="#37474F" />
        <path
            d="M24.7967 17.4437C24.5746 17.3121 24.395 17.4182 24.395 17.6805C24.4025 17.8228 24.4428 17.9613 24.5126 18.0848C24.5824 18.2082 24.6797 18.3131 24.7967 18.391C25.0187 18.5217 25.1992 18.4156 25.1992 18.1542C25.1915 18.0118 25.151 17.8733 25.0811 17.7498C25.0112 17.6264 24.9137 17.5215 24.7967 17.4437Z"
            fill="#455A64" />
        <path
            d="M24.6596 17.8383C24.6622 17.8871 24.676 17.9345 24.6998 17.9768C24.7236 18.0191 24.7569 18.0551 24.7968 18.0819C24.81 18.0916 24.8253 18.0979 24.8414 18.1001C24.8575 18.1023 24.8739 18.1004 24.8892 18.0947C24.8928 18.0934 24.8962 18.0914 24.8991 18.0887C24.9112 18.0784 24.9207 18.0654 24.9269 18.0506C24.9331 18.0359 24.9358 18.0199 24.9349 18.0038C24.9322 17.955 24.9182 17.9076 24.8943 17.8653C24.8703 17.823 24.8369 17.787 24.7968 17.7602C24.7837 17.7508 24.7685 17.7448 24.7525 17.7428C24.7366 17.7407 24.7204 17.7426 24.7054 17.7483L24.6954 17.7543C24.6833 17.7644 24.6738 17.7773 24.6675 17.7919C24.6613 17.8065 24.6586 17.8224 24.6596 17.8383Z"
            fill="#37474F" />
        <path
            d="M24.3269 18.0376C24.3293 18.0864 24.343 18.1339 24.3668 18.1762C24.3907 18.2186 24.424 18.2545 24.4641 18.2812C24.482 18.293 24.5027 18.2994 24.524 18.2999C24.5401 18.2995 24.5559 18.2948 24.5697 18.2863L24.8891 18.0978C24.8927 18.0966 24.8961 18.0945 24.899 18.0919C24.9111 18.0816 24.9206 18.0685 24.9268 18.0538C24.933 18.0391 24.9357 18.023 24.9348 18.007C24.9321 17.9582 24.9182 17.9108 24.8942 17.8684C24.8702 17.8261 24.8368 17.7902 24.7968 17.7634C24.7836 17.754 24.7684 17.748 24.7525 17.7459C24.7365 17.7439 24.7203 17.7458 24.7053 17.7515L24.6953 17.7575L24.3751 17.9451C24.3594 17.9543 24.3465 17.9679 24.338 17.9842C24.3294 18.0006 24.3256 18.0191 24.3269 18.0376Z"
            fill="#FAFAFA" />
        <path
            d="M24.3269 18.0379C24.3294 18.0868 24.3431 18.1344 24.3669 18.1769C24.3907 18.2193 24.424 18.2555 24.4641 18.2824C24.4774 18.2918 24.4928 18.2978 24.5089 18.2999C24.5249 18.3019 24.5412 18.3 24.5564 18.2942L24.5664 18.2883C24.5786 18.2781 24.5881 18.265 24.5944 18.2503C24.6006 18.2355 24.6033 18.2195 24.6022 18.2034C24.5994 18.1545 24.5854 18.107 24.5615 18.0645C24.5375 18.0221 24.5042 17.9859 24.4641 17.959C24.4508 17.9495 24.4355 17.9436 24.4194 17.9415C24.4033 17.9394 24.387 17.9413 24.3718 17.9471L24.3618 17.953C24.3499 17.9634 24.3405 17.9765 24.3344 17.9912C24.3284 18.006 24.3258 18.022 24.3269 18.0379Z"
            fill="#E0E0E0" />
        <path
            d="M27.027 17.771C27.5317 17.378 28.0157 17.3806 27.9284 16.4197C27.8544 15.9953 27.7513 15.9647 27.3463 15.8035C27.1683 15.733 26.9305 15.6795 26.7883 15.8459C26.7727 15.8668 26.7554 15.8864 26.7367 15.9045C26.6948 15.9318 26.6467 15.9475 26.597 15.9503C26.5022 15.955 26.4121 15.9938 26.3426 16.0598C26.2952 16.115 26.2769 16.1905 26.2303 16.2457C26.1856 16.289 26.1375 16.3284 26.0864 16.3637C26.0499 16.3961 26.0204 16.4359 25.9999 16.4807C25.9794 16.5254 25.9684 16.574 25.9675 16.6234C25.9709 16.6799 25.9863 16.7349 26.0128 16.7846C26.0392 16.8343 26.076 16.8775 26.1205 16.9112L26.375 16.7618C26.4789 16.6888 26.6935 16.9494 26.6012 17.0869C26.454 17.3059 27.027 17.771 27.027 17.771Z"
            fill="#FFEDE5" />
        <path
            d="M21.1478 19.7031C21.3092 19.0376 21.3557 17.3748 21.3557 17.3748L16.634 17.5191L16.891 18.569C16.9334 18.8057 16.9559 19.0457 16.9583 19.2863C16.9583 19.2863 17.4165 20.1529 18.7753 20.3049C19.6103 20.3861 20.4473 20.1738 21.1478 19.7031Z"
            fill="#FFEDE5" />
        <path
            d="M21.3583 17.3747C21.3641 17.4274 21.3309 17.9307 21.3309 17.9307C20.7271 18.4493 18.7904 18.7116 16.7572 18.0215L16.3264 16.3239C16.3264 16.3239 17.7883 15.6686 16.8004 13.4702L17.8623 13.3853L19.7475 13.3369H20.3662C20.8749 13.8414 21.3049 14.4225 21.641 15.06C21.888 15.5303 22.2024 16.2195 21.3583 17.3747Z"
            fill="#455A64" />
        <path
            d="M18.6865 17.3899C17.8358 17.1684 17.6229 16.626 17.5622 16.2271C17.5622 16.2271 17.4017 17.3899 18.6175 17.6607C19.8997 17.9459 20.427 16.9095 20.427 16.9095C20.427 16.9095 19.7126 17.6573 18.6865 17.3899Z"
            fill="#37474F" />
        <path
            d="M11.4449 30.3301C11.1955 30.516 10.6208 30.561 10.1144 30.3182C9.60797 30.0755 9.39675 29.3845 9.49155 28.8506C9.60631 28.1996 9.92147 27.8439 10.0013 27.4518C10.0811 27.0596 10.0013 26.5181 10.1227 26.1684C10.1728 26.0339 10.2507 25.9122 10.3512 25.8114C10.4516 25.7106 10.5723 25.6331 10.7048 25.5844C10.7893 25.5511 10.8802 25.5379 10.9704 25.546C11.0607 25.5541 11.1479 25.5832 11.2254 25.6311L11.3751 25.721L11.4449 30.3301Z"
            fill="#263238" />
        <path
            d="M12.0397 27.8473L11.6455 29.0544C11.6455 29.0544 11.895 29.9151 11.7544 30.1442C11.5474 30.4838 11.1823 30.5432 10.5678 30.3513C9.86508 30.1332 9.6996 29.4839 9.73619 28.9797C9.78608 28.2607 10.4372 27.72 10.3624 27.0274C10.3258 26.6879 10.3715 26.3084 10.5536 26.0164C10.7574 25.6905 11.0917 25.6294 11.4384 25.7355C11.7361 25.8272 11.9973 26.0181 12.2492 26.1972C12.3216 26.2442 12.3871 26.3014 12.4438 26.367C12.4889 26.4285 12.5228 26.4978 12.5436 26.5716C12.5892 26.7199 12.6028 26.8766 12.5835 27.0308C12.5652 27.1751 12.4746 27.2591 12.3906 27.3703L12.0397 27.8473Z"
            fill="url(#paint1_linear_430_15)" />
        <path
            d="M13.7384 27.2761C13.7143 27.2667 12.5102 26.4807 12.3804 26.4213C12.2507 26.3619 11.9314 26.2778 11.6229 27.007C11.4025 27.5256 11.7193 27.7174 11.7193 27.7174L13.133 28.5747L13.7384 27.2761Z"
            fill="#FFEDE5" />
        <path
            d="M11.6453 29.0544C11.3905 28.9244 11.1085 28.86 10.8237 28.8668C10.8026 28.8689 10.7812 28.8656 10.7617 28.8572C10.7421 28.8489 10.7248 28.8357 10.7113 28.819C10.6978 28.8022 10.6886 28.7823 10.6844 28.7611C10.6802 28.7398 10.6812 28.7178 10.6873 28.6971C10.6953 28.6723 10.7103 28.6506 10.7305 28.6346C10.7506 28.6185 10.775 28.609 10.8004 28.6071C10.9908 28.5918 11.4532 28.5859 11.7601 28.8439C11.8416 29.012 11.6453 29.0544 11.6453 29.0544Z"
            fill="url(#paint2_linear_430_15)" />
        <path
            d="M11.7899 28.5026C11.5422 28.3594 11.2638 28.2804 10.9792 28.2726C10.9577 28.2736 10.9364 28.2693 10.917 28.2599C10.8976 28.2504 10.8808 28.2363 10.8681 28.2186C10.8554 28.2009 10.8472 28.1803 10.8443 28.1586C10.8413 28.137 10.8436 28.1148 10.8511 28.0943C10.8603 28.0699 10.8763 28.0489 10.8972 28.0338C10.918 28.0187 10.9428 28.0102 10.9683 28.0094C11.1596 28.0043 11.622 28.0239 11.9155 28.2972C11.9879 28.4712 11.7899 28.5026 11.7899 28.5026Z"
            fill="url(#paint3_linear_430_15)" />
        <path opacity="0.3"
            d="M11.6453 29.0544C11.3905 28.9244 11.1085 28.86 10.8237 28.8668C10.8026 28.8689 10.7812 28.8656 10.7617 28.8572C10.7421 28.8489 10.7248 28.8357 10.7113 28.819C10.6978 28.8022 10.6886 28.7823 10.6844 28.7611C10.6802 28.7398 10.6812 28.7178 10.6873 28.6971C10.6953 28.6723 10.7103 28.6506 10.7305 28.6346C10.7506 28.6185 10.775 28.609 10.8004 28.6071C10.9908 28.5918 11.4532 28.5859 11.7601 28.8439C11.8416 29.012 11.6453 29.0544 11.6453 29.0544Z"
            fill="black" />
        <path opacity="0.3"
            d="M11.7899 28.5026C11.5422 28.3594 11.2638 28.2804 10.9792 28.2726C10.9577 28.2736 10.9364 28.2693 10.917 28.2599C10.8976 28.2504 10.8808 28.2363 10.8681 28.2186C10.8554 28.2009 10.8472 28.1803 10.8443 28.1586C10.8413 28.137 10.8436 28.1148 10.8511 28.0943C10.8603 28.0699 10.8763 28.0489 10.8972 28.0338C10.918 28.0187 10.9428 28.0102 10.9683 28.0094C11.1596 28.0043 11.622 28.0239 11.9155 28.2972C11.9879 28.4712 11.7899 28.5026 11.7899 28.5026Z"
            fill="black" />
        <path
            d="M24.0617 30.4608L25.6259 29.8276C25.5993 29.4159 25.4995 28.8676 25.6034 27.7904L23.8289 27.4458V29.2589L24.0617 30.4608Z"
            fill="#FFEDE5" />
        <path
            d="M28.5246 31.8631C28.5662 31.9916 28.5585 32.1314 28.503 32.2544C28.4498 32.369 27.8635 32.706 27.0727 32.6516C26.4863 32.6097 25.9215 32.4084 25.437 32.0685C25.136 31.8648 24.8216 31.8266 24.4308 31.8037C24.0399 31.7808 23.5244 31.5813 23.4387 31.3945C23.3531 31.2078 23.452 30.8853 23.452 30.8853L28.5246 31.8631Z"
            fill="#263238" />
        <path
            d="M25.334 29.3439L25.3964 29.3303C25.4303 29.321 25.4657 29.3193 25.5003 29.3252C25.5387 29.3373 25.5728 29.3606 25.5985 29.3923C25.6759 29.493 25.7433 29.6013 25.7997 29.7157C25.966 29.9915 26.3136 30.2207 26.6936 30.4287C26.9523 30.5704 27.2051 30.6833 27.472 30.803C27.7389 30.9227 28.1048 31.0042 28.3177 31.151C28.6279 31.3641 28.6686 31.9005 28.3177 32.1119C28.0134 32.2952 27.2109 32.493 26.3693 32.2494C25.9103 32.117 25.4014 31.617 24.8001 31.5703C24.4176 31.5398 23.6933 31.4303 23.4472 31.134C23.3565 31.0025 23.4779 30.5848 23.5777 30.2249C23.6867 29.8319 23.7266 29.1393 23.8546 29.1741C23.8546 29.1741 23.8197 29.2717 23.8696 29.3244C23.9195 29.377 24.095 29.4822 24.1465 29.5264C24.2327 29.6161 24.3023 29.7211 24.3519 29.8362C24.3725 29.8882 24.4109 29.9307 24.46 29.9559C24.5249 29.9805 24.5731 29.9389 24.6263 29.9126C24.6983 29.8797 24.7793 29.874 24.855 29.8965C24.8477 29.8185 24.8341 29.7413 24.8143 29.6656C24.8058 29.6417 24.8038 29.6159 24.8085 29.5909C24.8189 29.5676 24.836 29.5481 24.8575 29.5349C25.0015 29.4379 25.1638 29.3728 25.334 29.3439Z"
            fill="url(#paint4_linear_430_15)" />
        <path
            d="M26.3359 30.2164C26.3359 30.2164 26.281 30.0662 26.054 30.0237C25.8793 29.9906 25.5717 30.1213 25.3804 30.2784C25.3624 30.2935 25.3483 30.3129 25.3393 30.3349C25.3303 30.3569 25.3266 30.3808 25.3287 30.4045C25.3307 30.4282 25.3384 30.4511 25.351 30.4711C25.3637 30.4911 25.3809 30.5077 25.4012 30.5194C25.4273 30.5347 25.4574 30.5411 25.4873 30.5377C25.5172 30.5344 25.5453 30.5214 25.5675 30.5008C25.778 30.3082 26.0534 30.2063 26.3359 30.2164Z"
            fill="url(#paint5_linear_430_15)" />
        <path
            d="M26.8756 30.5246C26.8379 30.4703 26.788 30.4261 26.7301 30.3955C26.6723 30.3649 26.6081 30.3489 26.5429 30.3489C26.5429 30.3489 26.088 30.3625 25.8061 30.6298C25.789 30.6446 25.7755 30.6633 25.767 30.6845C25.7584 30.7056 25.7549 30.7286 25.7569 30.7514C25.7588 30.7742 25.7661 30.7962 25.7782 30.8155C25.7902 30.8349 25.8067 30.8509 25.8261 30.8624C25.8508 30.8764 25.8792 30.8822 25.9072 30.8788C25.9353 30.8755 25.9616 30.8632 25.9824 30.8437C26.0985 30.7259 26.239 30.636 26.3935 30.5808C26.5481 30.5256 26.7128 30.5064 26.8756 30.5246Z"
            fill="url(#paint6_linear_430_15)" />
        <path
            d="M27.4719 30.8028C27.4285 30.7524 27.375 30.7122 27.3151 30.6848C27.2551 30.6574 27.19 30.6435 27.1243 30.6441C27.1243 30.6441 26.7002 30.6602 26.4192 30.9276C26.4018 30.9421 26.3881 30.9608 26.3794 30.9819C26.3706 31.0031 26.367 31.0261 26.3689 31.049C26.3708 31.0719 26.3781 31.0939 26.3902 31.1133C26.4022 31.1327 26.4188 31.1487 26.4383 31.1601C26.4631 31.1741 26.4916 31.1798 26.5198 31.1764C26.548 31.1731 26.5744 31.1609 26.5955 31.1415C26.7056 31.0193 26.8423 30.925 26.9944 30.8662C27.1466 30.8074 27.3101 30.7857 27.4719 30.8028Z"
            fill="url(#paint7_linear_430_15)" />
        <path opacity="0.3"
            d="M26.3359 30.2164C26.3359 30.2164 26.281 30.0662 26.054 30.0237C25.8793 29.9906 25.5717 30.1213 25.3804 30.2784C25.3624 30.2935 25.3483 30.3129 25.3393 30.3349C25.3303 30.3569 25.3266 30.3808 25.3287 30.4045C25.3307 30.4282 25.3384 30.4511 25.351 30.4711C25.3637 30.4911 25.3809 30.5077 25.4012 30.5194C25.4273 30.5347 25.4574 30.5411 25.4873 30.5377C25.5172 30.5344 25.5453 30.5214 25.5675 30.5008C25.778 30.3082 26.0534 30.2063 26.3359 30.2164Z"
            fill="black" />
        <path opacity="0.3"
            d="M26.8756 30.5246C26.8379 30.4703 26.788 30.4261 26.7301 30.3955C26.6723 30.3649 26.6081 30.3489 26.5429 30.3489C26.5429 30.3489 26.088 30.3625 25.8061 30.6298C25.789 30.6446 25.7755 30.6633 25.767 30.6845C25.7584 30.7056 25.7549 30.7286 25.7569 30.7514C25.7588 30.7742 25.7661 30.7962 25.7782 30.8155C25.7902 30.8349 25.8067 30.8509 25.8261 30.8624C25.8508 30.8764 25.8792 30.8822 25.9072 30.8788C25.9353 30.8755 25.9616 30.8632 25.9824 30.8437C26.0985 30.7259 26.239 30.636 26.3935 30.5808C26.5481 30.5256 26.7128 30.5064 26.8756 30.5246Z"
            fill="black" />
        <path opacity="0.3"
            d="M27.4719 30.8028C27.4285 30.7524 27.375 30.7122 27.3151 30.6848C27.2551 30.6574 27.19 30.6435 27.1243 30.6441C27.1243 30.6441 26.7002 30.6602 26.4192 30.9276C26.4018 30.9421 26.3881 30.9608 26.3794 30.9819C26.3706 31.0031 26.367 31.0261 26.3689 31.049C26.3708 31.0719 26.3781 31.0939 26.3902 31.1133C26.4022 31.1327 26.4188 31.1487 26.4383 31.1601C26.4631 31.1741 26.4916 31.1798 26.5198 31.1764C26.548 31.1731 26.5744 31.1609 26.5955 31.1415C26.7056 31.0193 26.8423 30.925 26.9944 30.8662C27.1466 30.8074 27.3101 30.7857 27.4719 30.8028Z"
            fill="black" />
        <path
            d="M25.1311 21.3555C23.9419 21.0831 21.1021 20.477 21.1021 20.477L21.1478 19.7029C20.1208 20.2461 17.9562 20.0925 16.9583 19.2861L16.8011 20.1069C16.4228 20.5693 16.0951 21.0725 15.824 21.6076C15.5962 22.0685 15.2153 22.7875 15.5945 24.4622C15.8174 25.446 16.1143 28.0357 16.1143 28.0357L13.2037 26.9407C13.2037 26.9407 12.9543 26.984 12.743 27.5409C12.6183 27.8702 12.5767 28.1868 12.7031 28.3506C13.7675 29.2088 15.4922 30.6102 17.2352 31.3962C18.3994 31.8511 19.0181 30.8521 19.0747 30.482C19.2934 29.0645 19.5453 24.5097 19.5453 24.5097L23.4371 24.3833C23.3082 25.1353 23.8321 28.0739 23.8321 28.0739C23.8321 28.0739 24.7901 28.4983 25.5834 28.0637C25.5834 28.0637 26.114 24.6821 26.1655 23.554C26.2179 22.296 26.2811 21.6195 25.1311 21.3555Z"
            fill="url(#paint8_linear_430_15)" />
        <path opacity="0.15"
            d="M23.437 24.3834C23.437 24.1805 23.5693 23.4717 24.0192 23.094C24.0192 23.094 23.4021 23.2069 23.1194 24.3935L23.437 24.3834Z"
            fill="black" />
        <path opacity="0.15"
            d="M16.1143 28.0359C16.1143 28.0359 16.1975 29.1538 16.4071 29.6987C16.4071 29.6987 15.8823 28.7311 15.825 27.9255L16.1143 28.0359Z"
            fill="black" />
        <path opacity="0.15"
            d="M21.1013 20.4771L21.147 19.7039C20.12 20.2463 17.9562 20.0926 16.9592 19.2871L16.802 20.1071C16.8103 20.1147 17.4506 20.7904 19.1155 20.8778C20.7803 20.9652 21.1013 20.4771 21.1013 20.4771Z"
            fill="black" />
        <path opacity="0.15"
            d="M19.5486 24.5099C19.5348 24.0897 19.4375 23.6768 19.2625 23.2963C19.0875 22.9157 18.8386 22.5754 18.5308 22.2961C18.5308 22.2961 19.4255 22.7206 19.7249 24.0642C19.7249 24.0642 20.3902 23.7476 20.7378 22.7986C20.7378 22.7986 20.6313 23.7476 20.0958 24.2875L21.7099 24.4394L19.5486 24.5099Z"
            fill="black" />
        <path
            d="M19.0297 7.34253C18.688 7.34197 18.3496 7.41017 18.0338 7.54321C17.718 7.67625 17.431 7.87154 17.1892 8.11789C16.9474 8.36425 16.7555 8.65685 16.6245 8.97895C16.4936 9.30105 16.4261 9.64635 16.426 9.99508C16.426 10.3439 16.4934 10.6893 16.6243 11.0115C16.7552 11.3337 16.947 11.6264 17.1889 11.8728C17.4307 12.1193 17.7178 12.3146 18.0336 12.4477C18.3495 12.5808 18.688 12.649 19.0297 12.6485C19.7183 12.6474 20.3784 12.3673 20.8648 11.8698C21.3513 11.3723 21.6244 10.698 21.6242 9.99508C21.6242 9.29232 21.351 8.61827 20.8646 8.12094C20.3781 7.62362 19.7182 7.34366 19.0297 7.34253Z"
            fill="#263238" />
        <path
            d="M16.3147 8.95509C16.4087 8.9507 16.5029 8.9561 16.5958 8.97122C16.6272 8.97333 16.6569 8.98724 16.6789 9.01026C16.6917 9.02931 16.6989 9.05169 16.6997 9.07477C16.7212 9.22214 16.7078 9.37261 16.6606 9.51361C16.624 9.61207 16.5101 9.66215 16.4378 9.73345C16.1567 10.0119 16.1342 10.4728 16.2448 10.8556C16.3554 11.2384 16.5775 11.5796 16.7213 11.9497C16.8652 12.3198 16.9417 12.7654 16.738 13.1381C16.659 13.2807 16.5151 13.3927 16.5326 13.5625C16.5525 13.7704 16.7305 13.969 16.807 14.1566C16.891 14.3789 16.9195 14.6189 16.8901 14.8552C16.8691 15.149 16.7622 15.4296 16.5833 15.6607C16.4465 15.8234 16.27 15.9462 16.0716 16.0166C15.8732 16.0869 15.6601 16.1024 15.454 16.0614C15.3671 16.0459 15.2849 16.0102 15.2137 15.957C15.0914 15.8568 15.0424 15.693 14.9758 15.5478C14.7621 15.0784 14.3106 14.7372 14.1734 14.239C14.0245 13.7085 14.2723 13.1567 14.5767 12.706C14.7189 12.4955 14.8777 12.2892 14.9476 12.0431C15.0415 11.7112 14.9592 11.3581 14.9376 11.0126C14.917 10.6752 14.955 10.3367 15.0499 10.0127C15.118 9.77844 15.2237 9.50852 15.4024 9.34045C15.6534 9.1076 15.976 8.97133 16.3147 8.95509Z"
            fill="#263238" />
        <path
            d="M20.6546 8.55615C20.939 8.73016 21.2891 9.46438 21.2484 11.0007C21.2134 12.3028 20.7985 12.6228 20.5906 12.7153C20.3827 12.8079 19.9819 12.7485 19.5927 12.6805V13.4623C19.5927 13.4623 20.1282 14.1023 20.0916 14.4614C20.055 14.8204 19.3133 14.901 18.811 14.5462C18.3087 14.1914 17.8871 13.5098 17.8871 13.5098L17.9038 11.712C17.9038 11.712 17.6717 11.9412 17.2834 11.5932C16.9649 11.3055 16.8585 10.8225 17.1096 10.5678C17.3607 10.3132 17.8223 10.382 17.9986 10.752C17.9986 10.752 18.6189 10.7775 19.448 10.3174C19.7705 10.1413 20.0478 9.88997 20.2575 9.58397C20.4671 9.27796 20.6032 8.92584 20.6546 8.55615Z"
            fill="#FFEDE5" />
        <path
            d="M19.8247 10.6683C19.8248 10.7005 19.8156 10.732 19.7984 10.7589C19.7811 10.7858 19.7564 10.807 19.7274 10.8196C19.6984 10.8323 19.6665 10.836 19.6354 10.8303C19.6044 10.8245 19.5758 10.8095 19.553 10.7873C19.5303 10.765 19.5145 10.7363 19.5076 10.705C19.5007 10.6736 19.503 10.6408 19.5142 10.6107C19.5254 10.5806 19.5451 10.5546 19.5707 10.5359C19.5964 10.5172 19.6268 10.5065 19.6583 10.5054C19.7013 10.5053 19.7426 10.5223 19.7736 10.5527C19.8047 10.5831 19.8229 10.6245 19.8247 10.6683Z"
            fill="#263238" />
        <g style="mix-blend-mode:multiply" opacity="0.5">
            <g style="mix-blend-mode:multiply" opacity="0.5">
                <path
                    d="M19.8613 11.7725L20.233 11.8947C20.2263 11.9202 20.2145 11.944 20.1985 11.9647C20.1825 11.9854 20.1626 12.0027 20.1399 12.0153C20.1173 12.028 20.0923 12.0359 20.0666 12.0385C20.0409 12.0411 20.0149 12.0384 19.9902 12.0305C19.9401 12.013 19.8986 11.9763 19.8745 11.9282C19.8505 11.88 19.8457 11.8241 19.8613 11.7725Z"
                    fill="#F28F8F" />
            </g>
        </g>
        <path
            d="M21.1428 10.1706L20.8193 9.9397C20.8329 9.91734 20.8508 9.89805 20.8719 9.88302C20.893 9.86798 20.917 9.85751 20.9422 9.85227C20.9674 9.84702 20.9935 9.8471 21.0187 9.8525C21.0439 9.8579 21.0677 9.86852 21.0888 9.88368C21.1317 9.9156 21.1612 9.96298 21.1713 10.0162C21.1813 10.0695 21.1711 10.1247 21.1428 10.1706Z"
            fill="#263238" />
        <path
            d="M21.0663 10.5545C21.0666 10.5867 21.0576 10.6183 21.0405 10.6453C21.0233 10.6723 20.9986 10.6935 20.9697 10.7064C20.9407 10.7192 20.9087 10.723 20.8776 10.7173C20.8466 10.7117 20.8178 10.6968 20.795 10.6745C20.7722 10.6523 20.7563 10.6236 20.7493 10.5922C20.7424 10.5608 20.7446 10.528 20.7558 10.4979C20.767 10.4678 20.7867 10.4417 20.8123 10.4229C20.838 10.4041 20.8685 10.3935 20.9 10.3923C20.9429 10.3923 20.9841 10.4091 21.0151 10.4393C21.046 10.4695 21.0644 10.5108 21.0663 10.5545Z"
            fill="#263238" />
        <g style="mix-blend-mode:multiply" opacity="0.5">
            <g style="mix-blend-mode:multiply" opacity="0.5">
                <path d="M20.3096 10.4578L20.3312 11.4441L20.8401 11.2854L20.3096 10.4578Z" fill="#F28F8F" />
            </g>
        </g>
        <g style="mix-blend-mode:multiply" opacity="0.5">
            <g style="mix-blend-mode:multiply" opacity="0.5">
                <path
                    d="M19.5937 12.6807C19.1829 12.6247 18.3397 12.3734 18.21 12.0322C18.2622 12.2047 18.3649 12.3566 18.5043 12.4677C18.7555 12.6901 19.592 12.9447 19.592 12.9447L19.5937 12.6807Z"
                    fill="#F28F8F" />
            </g>
        </g>
        <path
            d="M16.8003 13.4709C15.9953 13.5295 15.6635 13.6339 15.2153 14.6491C14.812 15.5616 13.8473 17.923 13.6062 18.4492C13.365 18.9755 13.3193 19.1869 13.523 19.7378C13.6893 20.1868 15.0481 22.7663 15.197 23.1423C15.3458 23.5184 15.4115 23.8986 15.6652 24.3366C15.9188 24.7746 16.3196 25.2024 16.6365 25.3034C17.1063 25.4537 17.7175 25.2449 17.735 24.9554C17.7524 24.666 17.0456 24.183 16.8535 23.5404C16.9813 23.6262 17.116 23.7008 17.256 23.7637C17.4464 23.8435 17.6593 23.8256 17.7225 23.7153C17.7857 23.605 17.5953 23.5379 17.4256 23.3656C17.3242 23.2629 17.1445 23.032 16.915 22.8283C16.7595 22.6908 16.5051 22.65 16.3903 22.4989C16.3288 22.4183 16.0494 21.7197 15.839 21.0976C15.5795 20.326 15.2377 19.2989 15.2377 19.2989L16.6365 16.3281C16.6365 16.3281 17.7333 15.211 16.8003 13.4709Z"
            fill="#FFEDE5" />
        <path
            d="M15.1946 23.1423C15.1946 23.1423 15.5165 22.4777 16.3879 22.4989L16.1576 21.9761C16.1576 21.9761 15.3069 22.0372 14.9485 22.6254L15.1946 23.1423Z"
            fill="#37474F" />
        <path
            d="M15.1004 22.5779L15.2875 22.8486C15.301 22.8683 15.3183 22.885 15.3383 22.8977C15.3583 22.9105 15.3806 22.9189 15.4039 22.9227C15.4272 22.9264 15.451 22.9253 15.4739 22.9194C15.4967 22.9136 15.5182 22.9031 15.537 22.8885L15.8696 22.6339C15.9083 22.6037 15.9342 22.5595 15.9421 22.5105C15.9499 22.4614 15.9392 22.4112 15.912 22.3699L15.7382 22.1085C15.7251 22.0883 15.7082 22.071 15.6884 22.0578C15.6685 22.0445 15.6463 22.0355 15.6229 22.0313C15.5996 22.0271 15.5757 22.0278 15.5526 22.0333C15.5295 22.0388 15.5078 22.0491 15.4887 22.0635L15.1361 22.3181C15.0978 22.3478 15.0724 22.3918 15.0657 22.4405C15.059 22.4891 15.0715 22.5385 15.1004 22.5779Z"
            fill="#263238" />
        <path
            d="M15.0383 22.5712L15.2271 22.8419C15.2407 22.8615 15.258 22.8781 15.278 22.8908C15.298 22.9034 15.3203 22.9119 15.3436 22.9156C15.3668 22.9193 15.3906 22.9182 15.4134 22.9124C15.4362 22.9066 15.4577 22.8962 15.4765 22.8818L15.8092 22.6272C15.8478 22.597 15.8738 22.5529 15.8818 22.5039C15.8898 22.4549 15.8793 22.4046 15.8524 22.3632L15.6786 22.1018C15.6655 22.0817 15.6485 22.0645 15.6286 22.0513C15.6088 22.0381 15.5866 22.0292 15.5633 22.0249C15.54 22.0207 15.5161 22.0214 15.493 22.0269C15.47 22.0323 15.4482 22.0425 15.4291 22.0568L15.0765 22.3157C15.0388 22.3447 15.0136 22.3877 15.0065 22.4355C14.9993 22.4832 15.0107 22.5319 15.0383 22.5712Z"
            fill="#455A64" />
        <path
            d="M15.8182 22.482C15.814 22.5156 15.797 22.5461 15.7708 22.5669L15.4382 22.8216C15.4266 22.831 15.4132 22.8378 15.3989 22.8414C15.3845 22.8451 15.3696 22.8455 15.3551 22.8428C15.3408 22.8405 15.3271 22.8354 15.3148 22.8277C15.3026 22.8199 15.2919 22.8098 15.2835 22.7978L15.0939 22.5262C15.0779 22.5036 15.0708 22.4758 15.074 22.4481C15.0751 22.4313 15.0799 22.415 15.0879 22.4003C15.096 22.3856 15.1071 22.373 15.1205 22.3632L15.4731 22.1086C15.4849 22.0996 15.4984 22.0933 15.5127 22.0899C15.527 22.0866 15.5419 22.0863 15.5563 22.089C15.5705 22.0916 15.5841 22.0971 15.5963 22.1051C15.6084 22.1131 15.6189 22.1235 15.627 22.1357L15.8008 22.3972C15.8171 22.4221 15.8242 22.4522 15.8207 22.482H15.8182Z"
            fill="url(#paint9_linear_430_15)" />
    </g>
    <defs>
        <linearGradient id="paint0_linear_430_15" x1="40" y1="40" x2="-13.3117" y2="35.8747"
            gradientUnits="userSpaceOnUse">
            <stop stop-color="#C58BF2" />
            <stop offset="1" stop-color="#EEA4CE" />
        </linearGradient>
        <linearGradient id="paint1_linear_430_15" x1="12.592" y1="30.4596" x2="8.76487" y2="30.2821"
            gradientUnits="userSpaceOnUse">
            <stop stop-color="#92A3FD" />
            <stop offset="1" stop-color="#9DCEFF" />
        </linearGradient>
        <linearGradient id="paint2_linear_430_15" x1="11.7799" y1="29.0544" x2="10.3577" y2="28.7879"
            gradientUnits="userSpaceOnUse">
            <stop stop-color="#92A3FD" />
            <stop offset="1" stop-color="#9DCEFF" />
        </linearGradient>
        <linearGradient id="paint3_linear_430_15" x1="11.9314" y1="28.5026" x2="10.5134" y2="28.2607"
            gradientUnits="userSpaceOnUse">
            <stop stop-color="#92A3FD" />
            <stop offset="1" stop-color="#9DCEFF" />
        </linearGradient>
        <linearGradient id="paint4_linear_430_15" x1="28.5659" y1="32.3627" x2="21.7662" y2="31.5132"
            gradientUnits="userSpaceOnUse">
            <stop stop-color="#92A3FD" />
            <stop offset="1" stop-color="#9DCEFF" />
        </linearGradient>
        <linearGradient id="paint5_linear_430_15" x1="26.3359" y1="30.5386" x2="25.0144" y2="30.3404"
            gradientUnits="userSpaceOnUse">
            <stop stop-color="#92A3FD" />
            <stop offset="1" stop-color="#9DCEFF" />
        </linearGradient>
        <linearGradient id="paint6_linear_430_15" x1="26.8756" y1="30.8797" x2="25.4139" y2="30.6413"
            gradientUnits="userSpaceOnUse">
            <stop stop-color="#92A3FD" />
            <stop offset="1" stop-color="#9DCEFF" />
        </linearGradient>
        <linearGradient id="paint7_linear_430_15" x1="27.4719" y1="31.1774" x2="26.0293" y2="30.9464"
            gradientUnits="userSpaceOnUse">
            <stop stop-color="#92A3FD" />
            <stop offset="1" stop-color="#9DCEFF" />
        </linearGradient>
        <linearGradient id="paint8_linear_430_15" x1="26.1887" y1="31.5127" x2="8.13781" y2="29.9633"
            gradientUnits="userSpaceOnUse">
            <stop stop-color="#92A3FD" />
            <stop offset="1" stop-color="#9DCEFF" />
        </linearGradient>
        <linearGradient id="paint9_linear_430_15" x1="15.8216" y1="22.8446" x2="14.8241" y2="22.7683"
            gradientUnits="userSpaceOnUse">
            <stop stop-color="#92A3FD" />
            <stop offset="1" stop-color="#9DCEFF" />
        </linearGradient>
        <clipPath id="clip0_430_15">
            <rect width="20.5333" height="25.3151" fill="white" transform="translate(9.46655 7.34253)" />
        </clipPath>
    </defs>
</svg>
