<svg width="375" height="437" viewBox="0 0 375 437" fill="none" xmlns="http://www.w3.org/2000/svg">
<g clip-path="url(#clip0_698_3880)">
<path d="M0 208.102C0 208.102 22.4 211.641 45.1 293.939C67.8 376.236 130.8 437 212.967 437C295.133 437 375 322.517 375 248.065V-2H0V208.102Z" fill="url(#paint0_linear_698_3880)"/>
<path d="M214.367 157.655L219.233 196.316L173.967 198.687V170.074L214.367 157.655Z" fill="#FFEDE5"/>
<path d="M173.967 188.938C173.967 188.938 202.267 202.994 210.267 158.923L173.967 170.074V188.938Z" fill="#E0855C"/>
<path d="M166.918 151.028C170.179 150.044 171.379 144.451 169.598 138.537C167.818 132.623 163.731 128.628 160.47 129.612C157.21 130.597 156.01 136.19 157.79 142.104C159.571 148.017 163.657 152.013 166.918 151.028Z" fill="#E0855C"/>
<path d="M161.866 123.6C161.866 123.6 162.733 184.564 189.166 186.501C215.6 188.437 217.7 139.292 217.866 123.6C218.033 107.909 201.333 103.401 186.4 103.568C171.466 103.735 162.566 111.414 161.866 123.6Z" fill="#FFEDE5"/>
<path d="M216.733 137.222C216.733 137.222 210 127.874 210.233 116.622C210.233 116.622 187.367 127.607 172.2 118.926C172.2 118.926 163.133 124.568 162.733 136.454L159.633 129.977C159.633 129.977 157.967 116.489 158.9 113.317C159.467 111.414 160.8 109.812 162.567 108.944C162.567 108.944 154.867 91.883 173.667 85.1055C173.667 85.1055 173.733 89.2121 181.233 88.6445C188.733 88.0769 223.466 85.9736 220.7 104.537C220.667 104.503 228.4 116.622 216.733 137.222Z" fill="#3B2645"/>
<path d="M224.574 138.867C226.209 132.911 224.873 127.349 221.589 126.445C218.305 125.54 214.317 129.635 212.682 135.591C211.046 141.547 212.383 147.108 215.666 148.013C218.95 148.917 222.938 144.823 224.574 138.867Z" fill="#FFEDE5"/>
<path d="M216.733 141.329C216.7 141.329 216.633 141.329 216.6 141.295C216.433 141.228 216.367 141.028 216.433 140.861L219.367 134.785C219.433 134.618 219.633 134.551 219.8 134.618C219.967 134.685 220.033 134.885 219.967 135.052L217.033 141.128C216.967 141.262 216.867 141.329 216.733 141.329Z" fill="#472938"/>
<path d="M188.133 157.721C186.5 157.721 183.333 156.853 182.6 155.518C182.1 154.583 183.1 149.341 185.033 140.561C185.367 138.991 185.667 137.756 185.767 137.155C186.167 134.952 184.933 134.351 184.867 134.351C184.7 134.284 184.633 134.084 184.7 133.917C184.767 133.75 184.967 133.683 185.133 133.75C185.2 133.783 186.9 134.551 186.4 137.289C186.3 137.89 186.033 139.125 185.667 140.728C184.767 144.801 182.667 154.349 183.167 155.217C183.767 156.319 187.5 157.321 188.6 157.02C189.7 156.72 191.867 155.117 191.9 155.117C192.033 155.017 192.267 155.05 192.367 155.184C192.467 155.317 192.433 155.551 192.3 155.651C192.2 155.718 190 157.321 188.8 157.655C188.6 157.688 188.4 157.721 188.133 157.721Z" fill="#472938"/>
<path d="M188.8 167.537C185.8 167.537 183.467 166.802 183.433 166.802C183.267 166.736 183.167 166.569 183.233 166.368C183.3 166.202 183.467 166.101 183.667 166.168C183.767 166.202 195.1 169.707 199.367 160.86C199.433 160.693 199.633 160.626 199.8 160.693C199.967 160.759 200.033 160.96 199.967 161.127C197.4 166.368 192.567 167.537 188.8 167.537Z" fill="#472938"/>
<path d="M201.167 135.319C202.233 135.319 203.1 136.187 203.1 137.255V138.691C203.1 139.759 202.233 140.627 201.167 140.627C200.1 140.627 199.233 139.759 199.233 138.691V137.255C199.233 136.187 200.066 135.319 201.167 135.319Z" fill="#472938"/>
<path d="M175.133 136.654C176.2 136.554 177.133 137.322 177.233 138.391L177.367 139.826C177.467 140.895 176.7 141.829 175.633 141.929C174.567 142.03 173.633 141.262 173.533 140.193L173.4 138.758C173.3 137.689 174.067 136.755 175.133 136.654Z" fill="#472938"/>
<path d="M207.8 129.142C205.467 127.807 202.7 127.607 200.2 128.575C196.033 130.244 194.8 129.109 194.533 128.541C194.267 127.974 197.067 125.203 202.667 125.437C206.5 125.57 207.8 129.142 207.8 129.142Z" fill="#472938"/>
<path d="M167 132.214C169.067 130.511 171.8 129.877 174.4 130.411C178.8 131.379 179.8 130.077 179.967 129.476C180.133 128.875 176.933 126.605 171.433 127.707C167.7 128.508 167 132.214 167 132.214Z" fill="#472938"/>
<path d="M271.767 215.914L249.933 207.768C192.967 225.63 168.333 211.674 158.8 202.025C158.8 202.025 124.233 206.9 119.633 210.706C115.033 214.512 128.167 330.731 128.833 356.171C129.267 372.397 127.233 395.968 125.7 410.858C150.9 427.451 180.433 436.967 212.967 436.967C232.733 436.967 252.4 430.323 270.833 419.205C267.733 393.297 261.267 339.177 261 331.398C260.667 321.149 271.767 215.914 271.767 215.914Z" fill="#AB8DA8"/>
<path d="M173.966 198.687L158.8 202.025C168.333 211.674 192.966 225.63 249.967 207.801L219.233 196.316L173.966 198.687Z" fill="#FFEDE5"/>
<path d="M262.4 310.598C262.4 310.598 247.633 239.518 238.133 211.14C236.8 207.133 235.566 203.995 234.5 202.025L221.733 197.251C221.733 197.251 223.566 204.129 225.966 213.844C230.433 231.773 236.9 259.317 237.7 270.935H169.333V199.688L157.667 202.025C157.667 202.025 157.666 202.125 157.633 202.292C156.7 207.901 139.6 306.792 126.9 328.794C126.9 328.794 128.667 350.662 128.8 356.171C129.233 372.397 127.2 395.968 125.667 410.858C150.866 427.451 180.4 436.967 212.933 436.967C232.7 436.967 252.366 430.323 270.8 419.205C267.7 393.297 261.233 339.177 260.966 331.398C260.933 328.961 261.5 321.115 262.4 310.598Z" fill="#3B2645"/>
<path d="M126.433 323.018L137.7 274.341L123.333 287.862L126.433 323.018Z" fill="#543753"/>
<path d="M203.567 378.507C194.533 378.507 186.9 375.235 180.867 368.825C171.067 358.375 167.2 341.214 165.7 328.661C164.067 315.072 164.733 303.821 164.767 303.721L164.8 303.42H242.367L242.4 303.721C242.4 303.821 243.1 315.106 241.467 328.661C239.967 341.214 236.1 358.375 226.3 368.825C220.233 375.235 212.6 378.507 203.567 378.507ZM165.4 304.055C165.3 305.958 164.9 316.341 166.367 328.594C167.867 341.047 171.7 358.041 181.367 368.357C187.267 374.634 194.733 377.839 203.567 377.839C212.4 377.839 219.867 374.634 225.767 368.357C235.433 358.041 239.267 341.047 240.767 328.594C242.233 316.341 241.833 305.958 241.733 304.055H165.4Z" fill="white"/>
<path d="M119.6 210.706C119.6 210.706 106.366 221.423 75.8665 283.589L117.6 319.513L141.6 275.743C141.6 275.743 131.266 208.87 119.6 210.706Z" fill="#AB8DA8"/>
<path d="M126.1 406.785C126.1 406.785 144.466 415.299 147.333 414.13C150.2 412.962 146.666 388.79 145.766 388.523C144.867 388.256 128.9 376.003 125.7 376.771C123.467 377.305 121.4 384.483 121.4 384.483L87.2332 358.475L112.933 315.506L75.8665 283.589C75.8665 283.589 64.3332 303.888 55.0999 322.885C70.6332 359.81 94.9665 390.593 125.7 410.858L126.1 406.785Z" fill="#FFEDE5"/>
<path d="M75.8665 283.589L112.933 315.506L109.3 321.583L75.8665 283.589Z" fill="#E0855C"/>
<path d="M271.767 215.914C277.7 217.984 318.2 269.9 318.2 269.9L273.867 303.687C273.867 303.687 257.433 281.051 255.867 269.9C254.3 258.749 259.767 211.741 271.767 215.914Z" fill="#AB8DA8"/>
<path d="M318.233 269.934C318.233 269.934 361.533 331.165 363.367 344.486C365.2 357.807 359.733 372.364 323.466 372.13C287.2 371.896 255.766 368.123 247.533 369.693C239.3 371.262 220.933 372.297 217.8 371.395C214.666 370.494 203.833 344.486 204.366 340.947C204.9 337.408 210.366 335.338 210.366 335.338C210.366 335.338 208.833 333.001 209.266 330.764C209.7 328.527 228.7 333.168 232.866 333.635C237.033 334.103 246.133 344.419 248.466 344.953C250.8 345.487 307.666 336.773 307.666 336.773L275.9 302.152L318.233 269.934Z" fill="#FFEDE5"/>
<path d="M318.233 269.934L275.9 302.152L280.833 307.56L318.233 269.934Z" fill="#E0855C"/>
<path d="M307.667 336.773L329.2 333.001C329.2 333.001 318.9 332.467 317.2 311.767L307.667 336.773Z" fill="#E0855C"/>
<path d="M317.166 303.721H214.666C214.033 314.404 215 323.385 216.566 330.664C222.533 331.565 230.4 333.335 232.9 333.635C237.066 334.102 246.166 344.452 248.5 344.953C250.833 345.454 307.666 336.773 307.666 336.773C318.866 331.665 317.166 303.721 317.166 303.721Z" fill="#E3DCF7"/>
<path d="M238.533 334.436C231.866 331.165 216.566 330.697 216.566 330.697C222.533 331.599 230.4 333.368 232.9 333.669C237.066 334.136 246.166 344.486 248.5 344.987C249.533 345.22 260.8 343.684 273.266 341.915C254.333 343.851 245.166 337.675 238.533 334.436Z" fill="#3B2645"/>
<path d="M214.667 303.721C214.667 303.721 206.667 296.409 208.133 293.538C209.6 290.667 215.866 296.075 215.866 296.075C215.866 296.075 210.5 282.32 214.467 280.918C218.433 279.516 231.8 295.274 231.8 295.274C231.8 295.274 228.767 280.717 230.567 280.116C232.367 279.515 242.833 293.171 242.833 293.171C242.833 293.171 247 275.776 251.333 275.709C255.667 275.643 252.567 295.608 252.567 295.608C252.567 295.608 257.267 280.283 260.833 281.318C264.4 282.353 264.733 298.746 264.733 298.746C264.733 298.746 265.367 286.193 267.933 285.692C270.5 285.191 273.867 303.721 273.867 303.721H214.667Z" fill="#679E97"/>
<path d="M277.333 303.721C277.333 303.721 282.566 286.46 285.1 286.226C287.633 285.992 287.8 300.482 287.8 300.482C287.8 300.482 292.933 283.489 294.5 283.054C296.066 282.62 297.1 294.372 297.1 294.372C297.1 294.372 305.3 282.587 307.2 283.021C309.1 283.455 306.6 294.372 306.6 294.372C306.6 294.372 314.433 283.221 319.567 284.891C324.7 286.56 317.233 303.687 317.233 303.687L277.333 303.721Z" fill="#679E97"/>
<path d="M317.167 303.721C317.167 303.721 328.733 292.937 325.7 290.566C322.667 288.196 308.733 297.144 308.733 297.144C308.733 297.144 320.133 282.287 319.6 277.846C319.067 273.406 297.433 301.617 297.433 301.617C297.433 301.617 306.8 281.485 304.467 280.417C302.133 279.349 292.5 302.085 292.5 302.085C292.5 302.085 295.367 289.498 292.5 289.565C289.633 289.632 285.667 302.719 285.667 302.719C285.667 302.719 281.7 288.83 279 288.296C276.3 287.762 276.667 296.209 276.667 296.209C276.667 296.209 274.233 289.665 271.8 290.032C269.367 290.4 272.233 299.08 272.233 299.08C272.233 299.08 264.767 286.727 260.567 286.527C256.367 286.326 254.333 299.547 254.333 299.547C254.333 299.547 255.733 286.827 252.933 286.493C250.133 286.159 248.167 300.249 248.167 300.249C248.167 300.249 246.767 280.217 241.2 279.682C235.633 279.148 239.967 295.007 239.967 295.007C239.967 295.007 230.933 288.73 228.733 290.032C226.533 291.334 231.867 303.721 231.867 303.721H317.167Z" fill="#85CCC6"/>
<path d="M264.5 288.697C264.467 288.697 264.467 288.697 264.5 288.697C264.3 288.663 264.167 288.53 264.167 288.33L267.633 253.14C267.667 252.973 267.8 252.806 268 252.84C268.167 252.873 268.333 253.007 268.3 253.207L264.833 288.396C264.8 288.563 264.667 288.697 264.5 288.697Z" fill="#472938"/>
</g>
<defs>
<linearGradient id="paint0_linear_698_3880" x1="375" y1="437" x2="-125.603" y2="403.91" gradientUnits="userSpaceOnUse">
<stop stop-color="#92A3FD"/>
<stop offset="1" stop-color="#9DCEFF"/>
</linearGradient>
<clipPath id="clip0_698_3880">
<rect width="375" height="439" fill="white" transform="translate(0 -2)"/>
</clipPath>
</defs>
</svg>
