<svg width="375" height="406" viewBox="0 0 375 406" fill="none" xmlns="http://www.w3.org/2000/svg">
<g clip-path="url(#clip0_698_3702)">
<path d="M375 236.901C375 236.901 302.933 399.894 191.1 405.5C79.2667 411.105 0 350.512 0 350.512V-37H375V236.901Z" fill="url(#paint0_linear_698_3702)"/>
<path d="M141.3 316.412C121.1 367.229 126.867 401.562 126.867 401.562C146.033 405.066 165.5 406.5 184.967 405.867C209.633 405.066 232.433 397.392 253.1 385.747C253.8 357.519 244.167 332.328 237.3 318.014C193.133 339.402 154.6 323.419 141.3 316.412Z" fill="#AB8DA8"/>
<path d="M147.233 302.732C145.067 307.404 143.067 311.975 141.333 316.412C154.6 323.419 193.167 339.435 237.3 318.014C233.533 310.173 230.567 305.602 230.567 305.602C230.567 305.602 174.4 244.475 147.233 302.732Z" fill="#FEF9EF"/>
<path d="M191.1 405.499V387.916L206.367 377.305L196.267 391.419L197.3 404.999L191.1 405.499Z" fill="#543753"/>
<path d="M118.533 192.625C118.533 192.625 117 193.192 116.733 208.74C116.467 224.289 115.3 255.219 115.3 255.219C115.3 255.219 101.2 242.106 100.167 235.5C99.1332 228.893 99.5666 222.954 98.8666 219.317C98.1666 215.681 98.0332 205.737 98.3332 203.869C98.6332 202.001 93.8999 201.7 92.5999 204.47C91.2999 207.239 90.8666 216.448 90.1999 216.782C89.5332 217.115 81.8999 217.816 81.1665 219.484C80.4332 221.153 81.7332 224.189 80.5999 226.725C79.4665 229.26 80.6999 231.062 80.5999 232.997C80.4999 234.933 80.0332 235.667 80.8999 238.603C81.7665 241.539 81.9332 244.008 83.3332 244.475L84.7332 244.942L89.6332 246.611C89.6332 246.611 110.633 293.957 121.033 294.991C131.433 296.026 136.867 287.751 138.167 281.078C139.467 274.405 146.433 234.432 146.433 234.432L118.533 192.625Z" fill="#FFEDE5"/>
<path d="M130.333 225.523L141.867 260.591L146.433 234.399L130.333 225.523Z" fill="#E0855C"/>
<path d="M115.3 255.186C115.3 255.186 125.1 263.427 128.333 270.2C128.333 270.2 123.1 256.32 115.5 249.881L115.3 255.186Z" fill="#E0855C"/>
<path d="M86.3665 244.275C86.3665 244.275 96.5998 244.008 97.4331 243.374C98.2664 242.74 98.2998 239.737 97.8664 239.37C97.8664 239.37 98.6998 234.999 97.9331 233.865C97.9331 233.865 98.2331 230.628 97.8998 228.727C97.8998 228.727 99.5998 238.469 99.3998 240.004C99.1998 241.539 99.9998 244.142 95.3998 244.909C90.7998 245.677 86.3665 244.275 86.3665 244.275Z" fill="#E0855C"/>
<path d="M97.9332 233.932C97.8999 233.932 97.8999 233.932 97.8666 233.932C97.6999 233.898 97.5666 233.731 97.5999 233.565C98.0332 230.862 97.3332 225.624 97.3332 225.59V225.523V225.457C97.6332 224.289 98.2666 220.986 97.3999 219.985C96.6333 219.084 89.2332 218.85 84.7332 218.917C84.5666 218.917 84.3999 218.784 84.3999 218.583C84.3999 218.383 84.5332 218.25 84.7332 218.25C86.7332 218.216 96.6999 218.15 97.8999 219.551C99.0999 220.952 98.1666 224.856 97.9999 225.557C98.0666 226.191 98.6666 230.995 98.2333 233.665C98.2333 233.832 98.0666 233.932 97.9332 233.932Z" fill="#472938"/>
<path d="M97.6665 225.857C97.6332 225.857 97.6665 225.857 97.6665 225.857L86.9332 225.357C86.7332 225.357 86.5999 225.19 86.5999 225.023C86.5999 224.823 86.7332 224.689 86.9332 224.689L97.6665 225.19C97.8665 225.19 97.9999 225.357 97.9999 225.523C97.9999 225.724 97.8332 225.857 97.6665 225.857Z" fill="#472938"/>
<path d="M97.8334 239.704H87.2667C87.0667 239.704 86.9333 239.571 86.9333 239.37C86.9333 239.17 87.0667 239.037 87.2667 239.037H97.8334C98.0334 239.037 98.1667 239.17 98.1667 239.37C98.1667 239.571 98.0334 239.704 97.8334 239.704Z" fill="#472938"/>
<path d="M98.0331 232.43H85.8997C85.6997 232.43 85.5664 232.297 85.5664 232.097C85.5664 231.896 85.6997 231.763 85.8997 231.763H98.0331C98.2331 231.763 98.3664 231.896 98.3664 232.097C98.3664 232.297 98.2331 232.43 98.0331 232.43Z" fill="#472938"/>
<path d="M278.967 176.375L299.167 175.608C300.033 175.575 300.767 176.242 300.8 177.109L302.367 218.817C302.4 219.684 301.733 220.418 300.867 220.452L280.667 221.219C279.8 221.253 279.067 220.585 279.033 219.718L277.467 178.01C277.433 177.109 278.1 176.409 278.967 176.375Z" fill="#3B2645"/>
<path d="M280.6 219.851C280.467 219.851 280.367 219.751 280.367 219.618L278.8 177.91C278.8 177.843 278.834 177.777 278.867 177.743C278.9 177.71 278.967 177.677 279.034 177.677L299.234 176.909C299.367 176.909 299.467 177.009 299.467 177.143L301.034 218.85C301.034 218.984 300.934 219.084 300.8 219.084L280.6 219.851Z" fill="#FEF9EF"/>
<path d="M216.333 171.204C216.333 171.204 237.533 173.339 241.467 190.556C245.4 207.773 252.667 248.679 252.667 248.679C252.667 248.679 268.133 223.889 269.367 219.951C270.6 216.014 274.6 202.701 274.467 198.163C274.333 193.626 278.767 196.862 278.767 202.267L279.433 220.152C279.467 220.752 279.967 221.219 280.567 221.186H280.6L301.067 219.651C301.767 219.618 302.267 219.017 302.233 218.316V218.083C302.233 218.083 300.767 215.047 301.2 213.645C301.633 212.244 305.133 212.11 305.533 212.444C305.933 212.778 308.1 216.948 308.033 218.083C307.967 219.217 305.433 222.754 303.767 223.288C302.1 223.822 285.5 227.826 282.1 232.964C278.7 238.102 263.833 283.113 251.767 286.583C239.7 290.053 227.933 257.321 225.167 247.745C222.4 238.169 216.333 171.204 216.333 171.204Z" fill="#FFEDE5"/>
<path d="M221.667 224.289C222.967 235.333 224.267 244.609 225.167 247.712C226.467 252.183 229.733 261.759 234.1 270.301L235.433 207.406L221.667 224.289Z" fill="#E0855C"/>
<path d="M301.667 200.566C301.667 200.566 308.9 204.269 308.767 205.838C308.634 207.406 307.267 210.208 305.867 210.075C304.467 209.942 301.834 208.54 301.1 206.905C300.367 205.27 300 200.032 301.667 200.566Z" fill="#FFEDE5"/>
<path d="M302.033 206.004C302.033 206.004 309.267 209.708 309.133 211.276C309 212.844 307.633 215.647 306.233 215.514C304.833 215.38 302.2 213.979 301.467 212.344C300.733 210.709 300.367 205.471 302.033 206.004Z" fill="#FFEDE5"/>
<path d="M302.033 193.959C302.033 193.959 309.267 197.663 309.133 199.231C309 200.799 307.633 203.602 306.233 203.469C304.833 203.335 302.2 201.934 301.467 200.299C300.733 198.664 300.367 193.392 302.033 193.959Z" fill="#FFEDE5"/>
<path d="M246.133 261.926C246.067 261.926 246.033 261.926 245.967 261.892C245.8 261.826 245.733 261.592 245.833 261.459L252.367 248.546C252.433 248.379 252.667 248.312 252.8 248.413C252.967 248.479 253.033 248.713 252.933 248.846L246.4 261.759C246.367 261.859 246.267 261.926 246.133 261.926Z" fill="#472938"/>
<path d="M152.5 280.244C152.533 291.088 147.233 302.699 147.233 302.699C147.233 302.699 183.933 323.319 230.533 305.568C230.533 305.568 224.833 290.887 225.566 275.539C187.9 268.532 152.5 280.244 152.5 280.244Z" fill="#FFEDE5"/>
<path d="M118.533 192.625C115.8 196.729 126.333 217.149 136.4 237.802C145.567 217.282 140.2 192.358 137.1 181.647C130 184.383 121.3 188.421 118.533 192.625Z" fill="#FFEDE5"/>
<path d="M225.567 275.572C225.633 273.971 225.8 272.369 226.033 270.768C226.167 269.8 226.333 268.766 226.5 267.665C196.6 259.49 161 268.833 150.967 271.802C151.933 275.105 152.5 277.975 152.5 280.244C152.5 280.244 187.9 268.532 225.567 275.572Z" fill="#FEF9EF"/>
<path d="M136.4 238.903C136.267 238.903 136.167 238.837 136.1 238.703L128.667 222.687C128.6 222.521 128.667 222.32 128.833 222.254C129 222.187 129.2 222.254 129.267 222.42L136.7 238.436C136.767 238.603 136.7 238.803 136.533 238.87C136.5 238.903 136.433 238.903 136.4 238.903Z" fill="#472938"/>
<path d="M193.4 309.606C193.915 309.606 194.333 309.187 194.333 308.671C194.333 308.156 193.915 307.737 193.4 307.737C192.884 307.737 192.467 308.156 192.467 308.671C192.467 309.187 192.884 309.606 193.4 309.606Z" fill="#E0855C"/>
<path d="M233.833 209.374C233.833 209.141 233.833 208.907 233.833 208.707C233.833 208.607 233.833 208.473 233.833 208.373C233.833 208.106 233.833 207.873 233.8 207.606C233.8 207.539 233.8 207.472 233.8 207.372C233.8 207.039 233.766 206.738 233.766 206.438V206.238C233.766 206.004 233.733 205.737 233.733 205.504C233.733 205.404 233.733 205.304 233.7 205.204C233.7 205.003 233.666 204.803 233.666 204.636L233.633 204.303C233.633 204.136 233.6 203.936 233.566 203.769C233.566 203.669 233.533 203.569 233.533 203.435C233.5 203.235 233.5 203.068 233.467 202.868C233.467 202.768 233.433 202.701 233.433 202.601C233.4 202.334 233.367 202.067 233.3 201.8C230.7 185.985 216.3 171.17 216.3 171.17C216.3 171.17 221.9 193.425 223.7 196.028C230.266 205.571 233.933 211.31 233.467 218.917C233.5 218.517 233.533 218.15 233.566 217.749C233.566 217.649 233.566 217.549 233.566 217.449C233.6 217.149 233.6 216.848 233.633 216.581C233.633 216.481 233.633 216.348 233.666 216.248C233.666 215.981 233.7 215.714 233.7 215.414L233.733 215.08C233.733 214.78 233.766 214.513 233.766 214.246C233.766 214.146 233.766 214.079 233.766 213.979C233.8 213.245 233.833 212.511 233.833 211.777C233.833 211.677 233.833 211.61 233.833 211.51C233.833 211.243 233.833 210.976 233.833 210.709V210.375C233.833 210.142 233.833 209.908 233.833 209.675V209.374Z" fill="#FFEDE5"/>
<path d="M223.7 196.061C221.9 193.459 216.333 171.204 216.333 171.204H212.1L147.233 178.144C147.233 178.144 142.667 179.478 137.1 181.614C140.167 192.324 145.567 217.282 136.4 237.769C142.433 250.181 148.267 262.66 150.933 271.802C160.967 268.799 196.567 259.49 226.467 267.665C228.433 255.052 232.233 234.966 233.467 218.95C233.933 211.343 230.267 205.604 223.7 196.061Z" fill="#AB8DA8"/>
<path d="M158.1 254.185C156.5 254.185 154.833 253.985 153.067 253.551C152.9 253.517 152.767 253.317 152.833 253.15C152.867 252.984 153.067 252.85 153.233 252.917C159.567 254.518 164.7 252.683 170.1 250.781C175.233 248.946 180.533 247.078 187.333 247.845C201.067 249.38 223.433 245.677 223.667 245.643C223.867 245.61 224.033 245.743 224.067 245.91C224.1 246.077 223.967 246.277 223.8 246.31C223.567 246.344 201.1 250.081 187.3 248.546C180.667 247.812 175.433 249.647 170.367 251.449C166.3 252.817 162.433 254.185 158.1 254.185Z" fill="#472938"/>
<path d="M209.367 82.25C209.367 82.25 226.767 83.985 221.533 107.141C216.3 130.297 221.467 129.263 226 141.508C230.533 153.753 206.833 145.645 206.833 145.645C206.833 145.645 218.9 163.73 154.767 155.922C101.867 149.482 137.167 121.889 137.167 121.889C137.167 121.889 121.267 123.991 140.3 107.174C153.7 95.3295 160.833 51.7868 209.367 82.25Z" fill="#3B2645"/>
<path d="M197.833 146.313C197.833 146.313 192.467 165.164 199.833 168.668C205.5 171.371 212.1 171.204 212.1 171.204C212.1 171.204 209.833 221.186 181.833 221.72C153.833 222.254 147.233 178.144 147.233 178.144C147.233 178.144 158.633 174.14 162.033 166.299C165.433 158.458 165.6 147.48 165.6 147.48L197.833 146.313Z" fill="#FFEDE5"/>
<path d="M211.285 132.06C214.138 127.113 214.073 121.729 211.14 120.033C208.206 118.338 203.515 120.974 200.662 125.921C197.808 130.868 197.873 136.253 200.807 137.948C203.74 139.643 208.431 137.007 211.285 132.06Z" fill="#E0855C"/>
<path d="M204.3 132.432C204.2 132.432 204.133 132.399 204.067 132.332C203.933 132.199 203.933 131.999 204.067 131.865L209.1 127.127C209.233 126.994 209.433 126.994 209.567 127.127C209.7 127.261 209.7 127.461 209.567 127.594L204.533 132.332C204.467 132.432 204.4 132.432 204.3 132.432Z" fill="#472938"/>
<path d="M158.838 134.188C162.134 133.408 163.741 128.269 162.427 122.71C161.114 117.151 157.377 113.277 154.08 114.058C150.784 114.838 149.177 119.978 150.491 125.536C151.805 131.095 155.542 134.969 158.838 134.188Z" fill="#FFEDE5"/>
<path d="M196.167 162.395C195.167 155.655 197.833 146.279 197.833 146.279L165.567 147.48C165.567 147.48 165.533 149.916 165.133 153.32C165.133 153.353 181.233 172.872 196.167 162.395Z" fill="#E0855C"/>
<path d="M157.967 127.361C157.867 127.361 157.767 127.294 157.7 127.194L154.5 122.289C154.4 122.122 154.433 121.922 154.6 121.822C154.767 121.722 154.967 121.755 155.067 121.922L158.267 126.827C158.367 126.994 158.333 127.194 158.167 127.294C158.1 127.361 158.033 127.361 157.967 127.361Z" fill="#472938"/>
<path d="M160.1 92.1597C160.1 92.1597 148.633 154.12 175.567 160.56C202.5 167 212.1 109.21 211.4 97.1979C210.7 85.1862 164.1 81.5493 160.1 92.1597Z" fill="#FFEDE5"/>
<path d="M195.934 120.487C196.8 120.654 197.367 121.488 197.234 122.356L197.067 123.323C196.9 124.191 196.067 124.758 195.2 124.625C194.334 124.458 193.767 123.624 193.9 122.756L194.067 121.789C194.234 120.921 195.067 120.321 195.934 120.487Z" fill="#472938"/>
<path d="M170.833 117.685C171.733 117.685 172.433 118.385 172.433 119.286V120.254C172.433 121.121 171.733 121.855 170.833 121.855C169.967 121.855 169.233 121.155 169.233 120.254V119.286C169.233 118.385 169.933 117.685 170.833 117.685Z" fill="#472938"/>
<path d="M201.8 118.819C201.8 118.819 200.6 117.017 197.133 116.417C193.667 115.816 192.567 116.016 192.533 114.915C192.5 113.814 200.267 112.113 201.8 118.819Z" fill="#472938"/>
<path d="M165.8 114.248C165.8 114.248 167.533 112.947 171 113.514C174.467 114.114 175.433 114.648 175.833 113.614C176.233 112.58 169.467 108.409 165.8 114.248Z" fill="#472938"/>
<path d="M172.4 137.871L186.8 139.506C186.8 139.506 184.567 149.249 178.2 148.114C171.867 147.013 172.4 137.871 172.4 137.871Z" fill="white"/>
<path d="M181.933 135.469C180.933 135.469 179.833 135.202 178.833 134.735C178.667 134.668 178.6 134.468 178.667 134.301C178.733 134.134 178.933 134.067 179.1 134.134C180.567 134.835 182.2 135.002 183.3 134.568C183.767 134.401 184.067 134.134 184.2 133.834C184.633 132.799 184.467 129.596 184.267 125.893L184.2 124.591C183.833 117.751 187.933 116.45 188.1 116.383C188.267 116.317 188.467 116.417 188.5 116.617C188.567 116.784 188.467 116.984 188.267 117.017C188.1 117.051 184.5 118.252 184.833 124.558L184.9 125.859C185.1 129.796 185.3 132.933 184.767 134.101C184.567 134.568 184.133 134.968 183.5 135.202C183.1 135.402 182.533 135.469 181.933 135.469Z" fill="#472938"/>
<path d="M206.833 126.627C206.833 126.627 209 109.91 201.8 100.768C201.8 100.768 195.7 112.313 185.7 108.309C185.7 108.309 171.967 120.22 157.967 116.75C143.967 113.28 148.933 80.515 169.233 79.1136C189.533 77.7122 230.833 85.8869 206.833 126.627Z" fill="#3B2645"/>
</g>
<defs>
<linearGradient id="paint0_linear_698_3702" x1="375" y1="405.866" x2="-125.641" y2="373.062" gradientUnits="userSpaceOnUse">
<stop stop-color="#92A3FD"/>
<stop offset="1" stop-color="#9DCEFF"/>
</linearGradient>
<clipPath id="clip0_698_3702">
<rect width="375" height="406" fill="white"/>
</clipPath>
</defs>
</svg>
