<svg width="375" height="422" viewBox="0 0 375 422" fill="none" xmlns="http://www.w3.org/2000/svg">
<g clip-path="url(#clip0_698_3951)">
<path d="M0 118.599C0 118.599 13.8333 76.4389 42.7333 87.378C83.0333 102.606 186.333 346.158 294.733 346.158C350.3 346.158 375 303.599 375 303.599V-27H0V118.599Z" fill="url(#paint0_linear_698_3951)"/>
<path d="M167.6 146.828C167.6 146.828 170.067 130.037 188.967 130.037C207.867 130.037 217.033 151.516 221.3 164.118C225.567 176.719 236.567 188.589 250.9 195.605C265.233 202.62 276.067 210.168 274.233 226.061C274.233 226.061 304.9 250.001 246.467 254.423C188.033 258.845 159.333 222.171 162.867 203.285C166.4 184.4 143.6 158.798 167.6 146.828Z" fill="#3B2645"/>
<path d="M202.967 187.126C202.967 187.126 200.3 212.928 211.633 215.189C211.633 215.189 216.333 261.505 189.9 261.505C163.467 261.505 166.167 216.585 166.167 216.585C166.167 216.585 177.433 213.626 176.533 188.722C175.633 163.818 203.333 169.803 202.967 187.126Z" fill="#FFEDE5"/>
<path d="M195.1 189.42C197.333 180.942 185.833 179.213 178.1 178.98C177 181.474 176.367 184.699 176.5 188.722C176.667 192.247 176.5 195.804 176.067 199.329C180.467 199.661 192.4 199.628 195.1 189.42Z" fill="#E0855C"/>
<path d="M173.317 181.508C175.702 180.69 176.393 176.423 174.861 171.978C173.329 167.532 170.153 164.591 167.768 165.409C165.383 166.227 164.692 170.494 166.224 174.939C167.756 179.385 170.932 182.326 173.317 181.508Z" fill="#E0855C"/>
<path d="M213.017 174.9C214.549 170.454 213.857 166.187 211.472 165.369C209.087 164.551 205.911 167.492 204.379 171.938C202.847 176.384 203.539 180.651 205.924 181.468C208.309 182.286 211.484 179.345 213.017 174.9Z" fill="#E0855C"/>
<path d="M169.033 150.984C169.033 150.984 167.2 195.505 188.333 195.605C204.767 195.671 209.467 175.688 209.733 153.179C210 130.669 169.3 133.694 169.033 150.984Z" fill="#FFEDE5"/>
<path d="M190 182.571C186.467 182.571 183.367 180.443 183.333 180.41C183.167 180.31 183.133 180.111 183.267 179.944C183.367 179.778 183.567 179.745 183.733 179.878C183.8 179.911 189.8 184.001 194.233 180.51C194.367 180.41 194.6 180.41 194.7 180.576C194.8 180.742 194.8 180.942 194.633 181.042C193.133 182.172 191.533 182.571 190 182.571Z" fill="#472938"/>
<path d="M176.267 164.151C176.267 164.151 179.033 165.913 183.7 164.483C183.7 164.45 179.733 168.506 176.267 164.151Z" fill="#472938"/>
<path d="M202.8 164.517C202.8 164.517 200.033 166.279 195.367 164.849C195.367 164.849 199.333 168.906 202.8 164.517Z" fill="#472938"/>
<path d="M174.667 158.731C174.667 158.731 178.167 154.874 183.267 156.071C185.867 156.67 184.867 153.478 180.167 153.677C175.467 153.877 174.667 158.731 174.667 158.731Z" fill="#472938"/>
<path d="M204.667 158.731C204.667 158.731 201.167 154.874 196.067 156.071C193.467 156.67 194.467 153.478 199.167 153.677C203.867 153.877 204.667 158.731 204.667 158.731Z" fill="#472938"/>
<path d="M189.2 175.123C188.2 175.123 186.067 174.392 185.333 173.66C185.067 173.394 184.967 173.128 185 172.862C185.067 172.463 185.367 171.2 185.8 169.604C186.367 167.31 187.1 164.483 187.333 163.087C187.567 161.757 187.333 160.36 186.7 159.163C186.6 158.997 186.667 158.798 186.833 158.698C187 158.598 187.2 158.665 187.3 158.831C188 160.161 188.267 161.69 188 163.187C187.767 164.616 187.033 167.476 186.467 169.77C186.067 171.299 185.733 172.629 185.7 172.962C185.7 172.995 185.733 173.062 185.833 173.195C186.533 173.893 188.733 174.558 189.367 174.458C190.2 174.325 191.933 173.527 192.533 172.829C192.667 172.696 192.867 172.696 193 172.796C193.133 172.929 193.133 173.128 193.033 173.261C192.3 174.059 190.433 174.957 189.467 175.09C189.333 175.123 189.267 175.123 189.2 175.123Z" fill="#472938"/>
<path d="M169.333 162.389C169.333 162.389 170.667 151.782 173.967 147.892C173.967 147.892 179.5 145.431 188.3 150.652C197.1 155.872 203.267 160.261 211.433 158.964C211.433 158.964 212.2 133.661 191.1 135.024C170 136.388 165.667 147.393 169.333 162.389Z" fill="#3B2645"/>
<path d="M308.767 318.727C308.433 318.195 307.433 319.093 307.433 319.093C307.433 319.093 306.4 317.929 303.6 318.761C300.8 319.592 292.5 326.707 292.5 326.707C288.767 326.641 282.667 330.298 282.667 330.298C282.667 330.298 278.067 328.403 273.9 322.152C269.733 315.901 265.2 312.842 265.2 312.842C265.2 312.842 255.433 273.674 248.833 249.236C242.133 252.062 233.433 263.201 227.233 272.178C227.367 276.401 227.5 279.094 227.5 279.094C227.5 279.094 249.233 336.616 252.033 338.345C254.833 340.073 286.8 343.93 287.133 343.698C287.467 343.465 290.4 344.23 291.6 343.698C292.8 343.166 294.267 344.03 295.733 343.033C297.2 342.035 299.733 343.565 300.767 342.6C301.8 341.636 303.6 342.035 304.8 341.47C306 340.905 312.7 331.462 312.833 329.766C312.967 328.07 309.1 319.259 308.767 318.727Z" fill="#FFEDE5"/>
<path d="M232.833 260.707C232.833 260.707 244.2 280.058 235.2 299.11L227.467 279.028L232.833 260.707Z" fill="#E0855C"/>
<path d="M248.8 249.17C246.433 240.392 244.467 233.509 243.5 231.015C239.833 221.44 233.067 221.007 233.067 221.007C226.4 221.107 226.733 256.75 227.2 272.112C233.4 263.134 242.1 252.029 248.8 249.17Z" fill="#AB8DA8"/>
<path d="M257.8 314.87C257.667 314.87 257.533 314.771 257.467 314.638C257.433 314.471 257.533 314.272 257.7 314.239L264.233 312.51C264.4 312.476 264.6 312.576 264.633 312.742C264.667 312.909 264.567 313.108 264.4 313.141L257.867 314.87C257.867 314.87 257.833 314.87 257.8 314.87Z" fill="#472938"/>
<path d="M290.133 337.513C289.967 337.513 289.8 337.38 289.8 337.181C289.633 333.124 284.833 332.958 284.633 332.958C284.433 332.958 284.3 332.792 284.3 332.626C284.3 332.426 284.467 332.293 284.633 332.293C284.7 332.293 290.233 332.493 290.433 337.147C290.5 337.347 290.333 337.513 290.133 337.513C290.167 337.513 290.167 337.513 290.133 337.513Z" fill="#472938"/>
<path d="M288.667 340.539C288.633 340.539 288.567 340.539 288.533 340.506C288.367 340.439 288.3 340.24 288.367 340.073C288.767 339.209 292.367 331.429 293.867 330.431C295.1 329.6 296.6 329.866 297.2 330.398C297.6 330.73 297.467 331.063 297.433 331.163C297.267 331.528 295.333 336.316 294.367 338.777C294.3 338.943 294.1 339.043 293.933 338.976C293.767 338.91 293.667 338.71 293.733 338.544C293.833 338.245 296.433 331.794 296.8 330.963C296.733 330.897 296.567 330.764 296.233 330.697C295.967 330.631 295.1 330.464 294.233 331.03C293.1 331.794 290.033 338.045 288.933 340.406C288.9 340.472 288.8 340.539 288.667 340.539Z" fill="#472938"/>
<path d="M299.2 338.045C299 338.045 298.867 337.912 298.867 337.713C298.867 337.646 298.867 337.646 299.8 334.355C300.567 331.661 301.8 327.272 301.933 326.574C301.733 326.375 300.8 325.976 300.167 326.175C299.667 326.341 298.133 328.602 297 330.597C296.9 330.764 296.7 330.797 296.533 330.73C296.367 330.631 296.333 330.431 296.4 330.265C297 329.234 299 325.843 299.933 325.51C300.733 325.244 301.767 325.61 302.233 325.942C302.467 326.109 302.6 326.308 302.6 326.474C302.6 326.674 302.133 328.37 300.433 334.488C300 336.05 299.567 337.547 299.533 337.713C299.533 337.912 299.367 338.045 299.2 338.045Z" fill="#472938"/>
<path d="M303.9 337.347C303.867 337.347 303.867 337.347 303.833 337.347C303.667 337.314 303.533 337.114 303.567 336.948C304.733 331.761 306.433 323.848 306.467 322.983C306.333 322.784 305.733 322.451 304.7 322.451C304.133 322.451 302.7 324.346 301.733 326.109C301.633 326.275 301.433 326.341 301.267 326.242C301.1 326.142 301.033 325.942 301.133 325.776C301.667 324.845 303.467 321.786 304.7 321.786C305.867 321.786 306.833 322.185 307.1 322.75C307.167 322.883 307.333 323.249 304.2 337.081C304.2 337.247 304.067 337.347 303.9 337.347Z" fill="#472938"/>
<path d="M306.4 322.784C306.267 322.784 306.133 322.684 306.067 322.551C305.533 320.855 307.1 318.96 307.167 318.894C307.3 318.761 307.5 318.727 307.633 318.86C307.767 318.993 307.8 319.193 307.667 319.326C307.667 319.359 306.267 321.022 306.7 322.385C306.767 322.551 306.667 322.75 306.467 322.817C306.467 322.784 306.433 322.784 306.4 322.784Z" fill="#472938"/>
<path d="M304.633 334.122C304.567 334.122 304.5 334.089 304.467 334.055C304.3 333.956 304.267 333.756 304.367 333.59L307.1 329.467L306.3 324.48C306.267 324.313 306.4 324.114 306.567 324.114C306.733 324.081 306.933 324.214 306.933 324.38L307.8 329.633L304.933 333.989C304.833 334.055 304.733 334.122 304.633 334.122Z" fill="#472938"/>
<path d="M73.4667 324.28C73.7667 323.748 74.8 324.579 74.8 324.579C74.8 324.579 75.8 323.382 78.6334 324.114C81.4667 324.845 90.0334 331.595 90.0334 331.595C93.7334 331.395 100.033 334.787 100.033 334.787C100.033 334.787 104.567 332.692 108.5 326.275C112.433 319.858 116.833 316.599 116.833 316.599C116.833 316.599 125 277.099 130.633 252.362C137.433 254.922 146.567 265.695 153.133 274.406C153.167 278.629 153.167 281.322 153.167 281.322C153.167 281.322 133.767 339.641 131.033 341.503C128.3 343.365 96.5 348.452 96.2 348.253C95.9 348.053 92.9667 348.918 91.7334 348.419C90.5 347.92 89.1 348.885 87.5667 347.92C86.0334 346.956 83.6 348.585 82.5 347.688C81.4 346.79 79.6667 347.222 78.4 346.723C77.1334 346.225 70.1 337.048 69.9 335.352C69.7 333.656 73.1667 324.812 73.4667 324.28Z" fill="#FFEDE5"/>
<path d="M147.033 263.301C147.033 263.301 136.467 283.117 146.2 301.77L153.1 281.388L147.033 263.301Z" fill="#E0855C"/>
<path d="M130.6 252.395C132.6 243.55 134.3 236.601 135.167 234.041C138.433 224.332 145.2 223.601 145.2 223.601C151.867 223.435 152.933 259.078 153.1 274.439C146.533 265.761 137.4 254.988 130.6 252.395Z" fill="#AB8DA8"/>
<path d="M124.233 318.395C124.2 318.395 124.2 318.395 124.167 318.395L117.567 316.932C117.4 316.899 117.267 316.699 117.3 316.533C117.333 316.367 117.533 316.234 117.7 316.267L124.3 317.73C124.467 317.763 124.6 317.963 124.567 318.129C124.533 318.295 124.367 318.395 124.233 318.395Z" fill="#472938"/>
<path d="M92.8 342.301C92.6 342.301 92.4667 342.135 92.4667 341.969C92.5 337.28 98 336.882 98.0667 336.882C98.2333 336.882 98.4 337.015 98.4333 337.181C98.4333 337.38 98.3 337.513 98.1333 337.546C97.9333 337.546 93.1667 337.912 93.1667 341.969C93.1333 342.168 93 342.301 92.8 342.301Z" fill="#472938"/>
<path d="M94.4334 345.26C94.3001 345.26 94.2001 345.194 94.1334 345.094C92.9667 342.8 89.6334 336.649 88.4667 335.917C87.5667 335.385 86.7001 335.585 86.4334 335.651C86.1334 335.751 85.9667 335.884 85.9001 335.951C86.3001 336.782 89.1334 343.132 89.2667 343.432C89.3334 343.598 89.2667 343.797 89.1001 343.864C88.9334 343.93 88.7334 343.864 88.6667 343.698C87.5667 341.27 85.4667 336.549 85.3001 336.183C85.1667 335.951 85.2667 335.651 85.5001 335.419C86.0667 334.887 87.5667 334.554 88.8334 335.319C90.4001 336.25 94.3001 343.897 94.7334 344.762C94.8001 344.928 94.7667 345.127 94.6001 345.194C94.5334 345.26 94.4667 345.26 94.4334 345.26Z" fill="#472938"/>
<path d="M83.7667 343.166C83.6 343.166 83.4667 343.066 83.4333 342.9C83.4 342.733 82.9667 341.403 82.4667 339.841C80.4667 333.69 79.9333 331.961 79.9333 331.761C79.9333 331.562 80.0333 331.395 80.2667 331.229C80.7333 330.863 81.7333 330.464 82.5667 330.697C83.5333 330.963 85.6667 334.288 86.3 335.286C86.4 335.452 86.3333 335.651 86.2 335.751C86.0333 335.851 85.8334 335.784 85.7334 335.651C84.5 333.69 82.8667 331.495 82.4 331.362C81.7333 331.163 80.8333 331.628 80.6333 331.828C80.8 332.426 82.2333 336.948 83.1333 339.674C84.1333 342.767 84.1333 342.767 84.1333 342.833C84.1333 342.999 83.9667 343.166 83.7667 343.166C83.8 343.166 83.8 343.166 83.7667 343.166Z" fill="#472938"/>
<path d="M79.0667 342.7C78.9333 342.7 78.8 342.6 78.7333 342.467C75.0667 328.735 75.2333 328.37 75.2667 328.237C75.5 327.638 76.4333 327.206 77.6333 327.173H77.6667C78.9 327.173 80.8 330.132 81.3667 331.03C81.4667 331.196 81.4 331.395 81.2667 331.495C81.1 331.595 80.9 331.528 80.8 331.395C79.7667 329.7 78.2667 327.838 77.7 327.838C76.7 327.871 76.1 328.237 75.9667 328.436C76.0333 329.301 78.0667 337.148 79.4333 342.268C79.4667 342.434 79.3667 342.634 79.2 342.667C79.1 342.667 79.0667 342.7 79.0667 342.7Z" fill="#472938"/>
<path d="M76 328.27C75.9667 328.27 75.9334 328.27 75.9 328.27C75.7334 328.237 75.6 328.037 75.6667 327.871C76.0334 326.474 74.6 324.878 74.5667 324.845C74.4334 324.712 74.4667 324.513 74.6 324.38C74.7334 324.247 74.9334 324.28 75.0667 324.413C75.1334 324.479 76.7667 326.308 76.3 328.037C76.2667 328.17 76.1334 328.27 76 328.27Z" fill="#472938"/>
<path d="M78.2 339.475C78.1 339.475 78 339.442 77.9334 339.342L74.9 335.119L75.5334 329.833C75.5667 329.666 75.7334 329.533 75.9 329.533C76.0667 329.567 76.2 329.733 76.2 329.899L75.6 334.92L78.5 338.943C78.6 339.076 78.5667 339.309 78.4334 339.408C78.3334 339.475 78.2667 339.475 78.2 339.475Z" fill="#472938"/>
<path d="M211.6 215.189L233.067 221.007C233.067 221.007 230.467 255.62 234.9 262.769C239.333 269.917 236.867 286.176 231.5 294.256C231.5 294.256 222.9 321.853 225.233 328.336C227.567 334.82 235.4 349.151 235.4 349.151C235.4 349.151 200.433 366.839 149.833 351.112C149.833 351.112 159.867 330.032 158.3 321.953C156.733 313.873 145.9 291.363 146.033 280.723C146.167 270.083 149.567 241.688 144.6 223.734L166.067 216.585C166.067 216.585 166.433 258.745 190.867 258.745C215.3 258.745 211.6 215.189 211.6 215.189Z" fill="#AB8DA8"/>
<path d="M231.533 294.256C231.533 294.256 228.867 299.576 211.933 301.803C211.933 301.803 228.233 303.034 226.6 312.809L231.533 294.256Z" fill="#543753"/>
<path d="M148.367 292.76C148.367 292.76 152.367 300.241 170.467 301.936C170.467 301.936 150.633 298.944 154.333 309.783L148.367 292.76Z" fill="#543753"/>
<path d="M146.133 282.585C145.967 282.585 145.8 282.452 145.8 282.286C145.767 281.721 145.733 281.222 145.767 280.723C145.8 278.329 146 275.071 146.2 271.28C146.5 266.093 146.867 259.643 146.967 253.026C146.967 252.827 147.1 252.694 147.3 252.694C147.5 252.694 147.633 252.86 147.633 253.026C147.533 259.643 147.167 266.127 146.867 271.314C146.633 275.104 146.467 278.363 146.433 280.756C146.433 281.222 146.433 281.721 146.467 282.253C146.467 282.386 146.333 282.552 146.133 282.585Z" fill="#472938"/>
<path d="M234.9 263.101C234.8 263.101 234.667 263.035 234.6 262.935C233.133 260.574 232.267 255.154 232.033 246.842C232.033 246.643 232.167 246.51 232.367 246.51C232.533 246.51 232.7 246.643 232.7 246.842C232.933 255.055 233.767 260.375 235.167 262.602C235.267 262.769 235.2 262.968 235.067 263.068C235.033 263.068 234.967 263.101 234.9 263.101Z" fill="#472938"/>
<path d="M151 348.652C151 348.652 169.833 355.8 191.867 355.036C213.9 354.271 258 338.378 278.6 341.636C299.2 344.895 297.867 353.639 297.167 357.662C296.467 361.686 253.7 422.033 216.133 422.033H158.567C158.567 422.033 87.8334 377.579 85.5334 364.744C83.2334 351.91 84.9001 344.23 104.633 343.864C124.367 343.498 145.7 346.923 151 348.652Z" fill="#3B2645"/>
<path d="M191.133 368.236C191.133 368.236 219.267 356.565 242.767 352.542C242.767 352.542 257.9 375.95 253.467 395.733C253.433 395.733 199.633 383.963 191.133 368.236Z" fill="#FFEDE5"/>
<path d="M191.133 368.236C191.133 368.236 259.2 377.113 253.433 395.733C247.667 414.353 191.133 368.236 191.133 368.236Z" fill="#E0855C"/>
<path d="M221.733 401.917C221.733 401.917 151.967 407.902 136.667 411.028C121.367 414.153 105.867 412.757 96.4 416.048C86.9334 419.34 81.7 421.867 80.5667 422C79.4333 422.133 76.8333 407.47 81.6 402.283C81.6 402.283 80.1333 396.996 86.8 392.907C93.4667 388.817 104.533 394.204 108.633 392.907C112.733 391.61 115.667 390.413 120.033 391.344C124.4 392.275 135.067 394.902 135.067 394.902C135.067 394.902 190 360.09 221.733 401.917Z" fill="#FFEDE5"/>
<path d="M135.1 394.902L176.533 406.14L221.733 401.917C221.733 401.917 201.133 380.771 172.7 382.733C144.267 384.694 135.1 394.902 135.1 394.902Z" fill="#E0855C"/>
<path d="M149.533 353.107C149.533 353.107 170.933 357.43 201.867 373.589C232.8 389.748 258.4 383.131 267.433 386.257C276.467 389.382 293.6 386.955 296.4 389.382C299.2 391.81 301.033 396.065 299.367 397.894C299.367 397.894 306.833 414.984 306.133 416.115C305.433 417.245 302.833 417.146 301.6 416.88C300.367 416.614 289.5 411.227 277 409C264.5 406.772 230.033 401.984 202.567 400.587C175.1 399.191 135.1 396.431 135.1 396.431C135.1 396.431 136.033 362.816 149.533 353.107Z" fill="#FFEDE5"/>
<path d="M297.1 398.592C296.033 398.592 294.6 398.393 292.767 397.761C292.6 397.695 292.5 397.495 292.567 397.329C292.633 397.163 292.833 397.063 293 397.129C297.133 398.592 299.133 397.595 299.167 397.595C299.333 397.495 299.533 397.562 299.6 397.728C299.7 397.894 299.633 398.094 299.467 398.16C299.433 398.16 298.667 398.592 297.1 398.592Z" fill="#472938"/>
<path d="M84.9667 403.314C82.6333 403.314 81.5 402.582 81.4334 402.549C81.2667 402.449 81.2333 402.25 81.3333 402.084C81.4333 401.917 81.6333 401.884 81.8 401.984C81.8 401.984 83 402.715 85.3334 402.616C87.7667 402.549 90.4 401.352 90.4334 401.352C90.6 401.286 90.8 401.352 90.8667 401.518C90.9334 401.685 90.8667 401.884 90.7 401.951C90.6 402.017 87.9 403.181 85.3667 403.281C85.2334 403.314 85.1 403.314 84.9667 403.314Z" fill="#472938"/>
</g>
<defs>
<linearGradient id="paint0_linear_698_3951" x1="375" y1="346.158" x2="-124.768" y2="307.295" gradientUnits="userSpaceOnUse">
<stop stop-color="#92A3FD"/>
<stop offset="1" stop-color="#9DCEFF"/>
</linearGradient>
<clipPath id="clip0_698_3951">
<rect width="375" height="422" fill="white"/>
</clipPath>
</defs>
</svg>
